<?xml version="1.0" encoding="utf-8"?>
<!-- Generator: Adobe Illustrator 19.2.1, SVG Export Plug-In . SVG Version: 6.00 Build 0)  -->
<svg version="1.1" id="Layer_1" xmlns="http://www.w3.org/2000/svg" xmlns:xlink="http://www.w3.org/1999/xlink" x="0px" y="0px"
	 viewBox="0 0 113.8 127.6" style="enable-background:new 0 0 113.8 127.6;" xml:space="preserve">
<style type="text/css">
	.st0{fill:#3A5566;}
	.st1{fill:#FFFFFF;}
</style>
<g>
	<path class="st0" d="M73.2,16.3h-5C68.2,10.1,63.1,5,56.9,5s-11.3,5.1-11.3,11.3h-5c0-9,7.3-16.3,16.3-16.3S73.2,7.3,73.2,16.3z"/>
	<g>
		<path class="st1" d="M111.3,16.3H56.9H2.5V113c0,3.3,1.4,6.4,3.5,8.6c2.2,2.2,5.2,3.5,8.6,3.5h42.3h42.3c3.3,0,6.4-1.4,8.6-3.5
			c2.2-2.2,3.5-5.2,3.5-8.6C111.3,113,111.3,16.3,111.3,16.3z"/>
		<path class="st0" d="M99.2,127.6H14.6c-4,0-7.6-1.5-10.4-4.2C1.5,120.5,0,116.8,0,113V13.8h113.8V113c0,4-1.5,7.6-4.2,10.4
			C106.7,126.1,103,127.6,99.2,127.6z M5,18.8V113c0,2.5,1,5,2.8,6.9c1.8,1.8,4.1,2.7,6.8,2.7h84.6c2.5,0,5-1,6.9-2.8
			c1.8-1.8,2.7-4.1,2.7-6.8V18.8H5z"/>
	</g>
	<path class="st0" d="M99.2,43.7H14.6c-3.8,0-7.5-1.5-10.3-4.2C1.5,36.7,0,33.1,0,29.1h5c0,2.7,1,5,2.8,6.8c1.8,1.7,4.3,2.8,6.8,2.8
		h84.6c2.7,0,5-1,6.8-2.8c1.7-1.8,2.8-4.3,2.8-6.8h5c0,3.8-1.5,7.5-4.2,10.3C106.8,42.2,103.2,43.7,99.2,43.7z"/>
	<g>
		<path class="st1" d="M62.4,29.1v35.2c0,3-2.4,5.5-5.5,5.5l0,0c-3,0-5.5-2.4-5.5-5.5V29.1H62.4z"/>
		<path class="st0" d="M56.9,72.3c-4.4,0-8-3.6-8-8V26.6h16v37.7C64.9,68.7,61.3,72.3,56.9,72.3z M53.9,31.6v32.7c0,1.7,1.3,3,3,3
			s3-1.3,3-3V31.6H53.9z"/>
	</g>
	<g>
		<rect x="45.2" y="41.2" class="st1" width="23.4" height="12.7"/>
		<path class="st0" d="M71.1,56.4H42.7V38.7h28.4V56.4z M47.7,51.4h18.4v-7.7H47.7V51.4z"/>
	</g>
	<rect x="42.7" y="26.6" class="st0" width="28.4" height="5"/>
	<g>
		<path class="st1" d="M99.6,86.3c0-6.7-5.4-12.1-12.1-12.1H26.3c-6.7,0-12.1,5.4-12.1,12.1v26.3c0,6.7,5.4,12.1,12.1,12.1h61.2
			c6.7,0,12.1-5.4,12.1-12.1V86.3z"/>
		<path class="st0" d="M87.5,127.2H26.3c-8.1,0-14.6-6.5-14.6-14.6V86.3c0-8,6.5-14.6,14.6-14.6h61.2c8,0,14.6,6.5,14.6,14.6v26.3
			C102.1,120.7,95.5,127.2,87.5,127.2z M26.3,76.7c-5.3,0-9.6,4.3-9.6,9.6v26.3c0,5.3,4.3,9.6,9.6,9.6h61.2c5.3,0,9.6-4.3,9.6-9.6
			V86.3c0-5.3-4.3-9.6-9.6-9.6H26.3z"/>
	</g>
	<rect x="14.2" y="83.8" class="st0" width="85.4" height="5"/>
	<rect x="86.8" y="86.3" class="st0" width="5" height="9.6"/>
</g>
</svg>
