<?xml version="1.0" encoding="utf-8"?>
<!-- Generator: Adobe Illustrator 19.2.1, SVG Export Plug-In . SVG Version: 6.00 Build 0)  -->
<svg version="1.1" id="Layer_1" xmlns="http://www.w3.org/2000/svg" xmlns:xlink="http://www.w3.org/1999/xlink" x="0px" y="0px"
	 viewBox="0 0 113.8 127.6" style="enable-background:new 0 0 113.8 127.6;" xml:space="preserve">
<style type="text/css">
	.st0{fill:#FFFFFF;}
	.st1{fill:#3A5566;}
</style>
<g>
	<g>
		<path class="st0" d="M14.6,113c-3.3,0-6.4-1.4-8.6-3.5c-2.2-2.2-3.5-5.2-3.5-8.6v-1.4V82.2c0-3.3,1.4-6.4,3.5-8.6
			c2.2-2.2,5.2-3.5,8.6-3.5"/>
		<path class="st1" d="M14.6,115.5c-3.8,0-7.5-1.5-10.3-4.2c-2.8-2.8-4.3-6.5-4.3-10.4V82.2c0-3.8,1.5-7.5,4.2-10.3
			c2.8-2.8,6.5-4.3,10.4-4.3v5c-2.7,0-5,1-6.8,2.8C6,77.2,5,79.7,5,82.2v18.7c0,2.7,1,5,2.8,6.8c1.8,1.7,4.3,2.8,6.8,2.8V115.5z"/>
	</g>
	<g>
		<path class="st0" d="M99.2,113.1c3.3,0,6.4-1.4,8.6-3.5c2.2-2.2,3.5-5.2,3.5-8.6v-1.4V82.3c0-3.3-1.4-6.4-3.5-8.6
			c-2.2-2.2-5.2-3.5-8.6-3.5"/>
		<path class="st1" d="M99.2,115.6v-5c2.5,0,5-1,6.9-2.8c1.8-1.8,2.7-4.1,2.7-6.8V82.3c0-2.5-1-5-2.8-6.9c-1.8-1.8-4.1-2.7-6.8-2.7
			v-5c4,0,7.6,1.5,10.4,4.2c2.7,2.8,4.2,6.6,4.2,10.4V101c0,4-1.5,7.6-4.2,10.4C106.7,114.1,103,115.6,99.2,115.6z"/>
	</g>
	<path class="st1" d="M73.2,16.3h-5C68.2,10.1,63.1,5,56.9,5s-11.3,5.1-11.3,11.3h-5c0-9,7.3-16.3,16.3-16.3S73.2,7.3,73.2,16.3z"/>
	<g>
		<path class="st0" d="M99.1,15.4H62.7H14.6V113c0,3.3,1.4,6.4,3.5,8.6c2.2,2.2,5.2,3.5,8.6,3.5h30.1h30.5c3.3,0,6.1-1.2,8.3-3.4
			c2.2-2.2,3.5-5.2,3.5-8.6V15.4L99.1,15.4z"/>
		<path class="st1" d="M87.3,127.6H26.7c-4,0-7.6-1.5-10.4-4.2c-2.7-2.8-4.2-6.6-4.2-10.4V12.9h89.5v100.2c0,4-1.5,7.6-4.2,10.4
			C94.7,126.2,91.2,127.6,87.3,127.6z M17.1,17.9V113c0,2.5,1,5,2.8,6.9c1.8,1.8,4.1,2.7,6.8,2.7h60.6c2.6,0,4.8-0.9,6.5-2.7
			c1.8-1.8,2.8-4.2,2.8-6.8V17.9H17.1z"/>
	</g>
	<path class="st1" d="M87.1,72.6H26.7c-3.8,0-7.5-1.5-10.3-4.2c-2.8-2.8-4.3-6.5-4.3-10.4h5c0,2.7,1,5,2.8,6.8
		c1.8,1.7,4.3,2.8,6.8,2.8h60.4c2.7,0,5-1,6.8-2.8c1.7-1.8,2.8-4.3,2.8-6.8h5c0,3.8-1.5,7.5-4.2,10.3C94.7,71.1,91.1,72.6,87.1,72.6
		z"/>
	<g>
		<path class="st0" d="M43.5,70.3l-0.1,22c0,3-2.4,5.5-5.5,5.5l0,0c-3,0-5.5-2.4-5.5-5.5l0.1-22H43.5z"/>
		<path class="st1" d="M37.9,100.3c-4.4,0-8-3.6-8-8L30,67.8h16l-0.1,24.5C45.9,96.7,42.3,100.3,37.9,100.3z M35,72.8l-0.1,19.5
			c0,1.7,1.3,3,3,3s3-1.3,3-3L41,72.8H35z"/>
	</g>
	<g>
		<rect x="26.3" y="70.1" class="st0" width="23.4" height="12.7"/>
		<path class="st1" d="M52.2,85.3H23.8V67.6h28.4V85.3z M28.8,80.3h18.4v-7.7H28.8V80.3z"/>
	</g>
	<g>
		<path class="st0" d="M81.2,70.3l-0.1,22c0,3-2.4,5.5-5.5,5.5l0,0c-3,0-5.5-2.4-5.5-5.5l0.1-22H81.2z"/>
		<path class="st1" d="M75.6,100.3c-4.4,0-8-3.6-8-8l0.1-24.5h16l-0.1,24.5C83.6,96.7,80,100.3,75.6,100.3z M72.7,72.8l-0.1,19.5
			c0,1.7,1.3,3,3,3s3-1.3,3-3l0.1-19.5H72.7z"/>
	</g>
	<g>
		<rect x="64" y="70.1" class="st0" width="23.4" height="12.7"/>
		<path class="st1" d="M89.9,85.3H61.5V67.6h28.4V85.3z M66.5,80.3h18.4v-7.7H66.5V80.3z"/>
	</g>
</g>
</svg>
