<?xml version="1.0" encoding="utf-8"?>
<!-- Generator: Adobe Illustrator 19.2.1, SVG Export Plug-In . SVG Version: 6.00 Build 0)  -->
<svg version="1.1" id="Layer_1" xmlns="http://www.w3.org/2000/svg" xmlns:xlink="http://www.w3.org/1999/xlink" x="0px" y="0px"
	 viewBox="0 0 56.5 68.3" style="enable-background:new 0 0 56.5 68.3;" xml:space="preserve">
<style type="text/css">
	.st0{fill:#9BA9B1;}
	.st1{fill:#3A5566;}
	.st2{fill:#FFFFFF;}
</style>
<g>
	<g>
		<path class="st0" d="M39,25.5v30.1c0,5.7-4.6,10.3-10.3,10.3h-16C7,65.9,2.4,61.3,2.4,55.6V25.5H39z"/>
		<path class="st1" d="M28.7,68.4h-16c-7.1,0-12.8-5.7-12.8-12.8V25.5c0-1.4,1.1-2.5,2.5-2.5H39c1.4,0,2.5,1.1,2.5,2.5v30.1
			C41.5,62.7,35.8,68.4,28.7,68.4z M4.9,28v27.6c0,4.3,3.5,7.8,7.8,7.8h16c4.3,0,7.8-3.5,7.8-7.8V28H4.9z"/>
	</g>
	<path class="st1" d="M39,58c-1.4,0-2.5-1.1-2.5-2.5S37.6,53,39,53c6.9,0,12.5-5.6,12.5-12.5S45.9,28,39,28c-1.4,0-2.5-1.1-2.5-2.5
		S37.6,23,39,23c9.6,0,17.5,7.9,17.5,17.5S48.6,58,39,58z"/>
	<path class="st2" d="M37,27.7v22c0,4.1-3.4,7.5-7.5,7.5H17.7c-4.1,0-7.5-3.4-7.5-7.5v-22H37z"/>
	<path class="st1" d="M28.7,68.4h-16c-7.1,0-12.8-5.7-12.8-12.8V25.5c0-1.4,1.1-2.5,2.5-2.5H39c1.4,0,2.5,1.1,2.5,2.5v30.1
		C41.5,62.7,35.8,68.4,28.7,68.4z M4.9,28v27.6c0,4.3,3.5,7.8,7.8,7.8h16c4.3,0,7.8-3.5,7.8-7.8V28H4.9z"/>
	<rect x="18.4" class="st0" width="5" height="18.1"/>
	<rect x="27.6" y="9.1" class="st0" width="5" height="9"/>
	<rect x="9" y="9.1" class="st0" width="5" height="9"/>
</g>
</svg>
