<?xml version="1.0" encoding="utf-8"?>
<!-- Generator: Adobe Illustrator 19.2.1, SVG Export Plug-In . SVG Version: 6.00 Build 0)  -->
<svg version="1.1" id="Layer_1" xmlns="http://www.w3.org/2000/svg" xmlns:xlink="http://www.w3.org/1999/xlink" x="0px" y="0px"
	 viewBox="0 0 126.7 157.2" style="enable-background:new 0 0 126.7 157.2;" xml:space="preserve">
<style type="text/css">
	.st0{fill:#FFFFFF;}
	.st1{fill:#3B5666;}
	.st2{fill:#9CAAB2;}
</style>
<g>
	<g>
		<rect x="2.5" y="2.5" class="st0" width="121.7" height="152.2"/>
		<path class="st1" d="M126.7,157.2H0V0h126.7V157.2z M5,152.2h116.7V5H5V152.2z"/>
	</g>
	<rect x="17.5" y="122" class="st2" width="92.1" height="17.8"/>
	<path class="st1" d="M107.7,124.5h-89c-1.4,0-2.5-1.1-2.5-2.5s1.1-2.5,2.5-2.5h89c1.4,0,2.5,1.1,2.5,2.5S109.1,124.5,107.7,124.5z"
		/>
	<path class="st1" d="M17.3,19.8c-0.6,0-1.3-0.2-1.8-0.7L0.7,4.3c-1-1-1-2.6,0-3.5c1-1,2.6-1,3.5,0l14.8,14.8c1,1,1,2.6,0,3.5
		C18.6,19.6,17.9,19.8,17.3,19.8z"/>
	<path class="st1" d="M2.5,157.2c-0.6,0-1.3-0.2-1.8-0.7c-1-1-1-2.6,0-3.5l14.8-14.8c1-1,2.6-1,3.5,0c1,1,1,2.6,0,3.5L4.3,156.5
		C3.8,157,3.1,157.2,2.5,157.2z"/>
	<path class="st1" d="M109.4,19.8c-0.6,0-1.3-0.2-1.8-0.7c-1-1-1-2.6,0-3.5l14.8-14.8c1-1,2.6-1,3.5,0c1,1,1,2.6,0,3.5l-14.8,14.8
		C110.7,19.6,110,19.8,109.4,19.8z"/>
	<path class="st1" d="M124.2,157.2c-0.6,0-1.3-0.2-1.8-0.7l-14.8-14.8c-1-1-1-2.6,0-3.5s2.6-1,3.5,0l14.8,14.8c1,1,1,2.6,0,3.5
		C125.5,157,124.8,157.2,124.2,157.2z"/>
	<g>
		<g>
			<path class="st2" d="M74.3,72.8v30.1c0,5.7-4.6,10.3-10.3,10.3H48c-5.7,0-10.3-4.6-10.3-10.3V72.8H74.3z"/>
			<path class="st1" d="M64,115.7H48c-7.1,0-12.8-5.7-12.8-12.8V72.8c0-1.4,1.1-2.5,2.5-2.5h36.6c1.4,0,2.5,1.1,2.5,2.5v30.1
				C76.8,110,71.1,115.7,64,115.7z M40.2,75.3v27.6c0,4.3,3.5,7.8,7.8,7.8h16c4.3,0,7.8-3.5,7.8-7.8V75.3H40.2z"/>
		</g>
		<path class="st1" d="M74.3,105.3c-1.4,0-2.5-1.1-2.5-2.5s1.1-2.5,2.5-2.5c6.9,0,12.5-5.6,12.5-12.5s-5.6-12.5-12.5-12.5
			c-1.4,0-2.5-1.1-2.5-2.5s1.1-2.5,2.5-2.5c9.6,0,17.5,7.9,17.5,17.5S83.9,105.3,74.3,105.3z"/>
		<path class="st0" d="M72.2,75.1v22c0,4.1-3.4,7.5-7.5,7.5H53c-4.1,0-7.5-3.4-7.5-7.5v-22H72.2z"/>
		<path class="st1" d="M64,115.7H48c-7.1,0-12.8-5.7-12.8-12.8V72.8c0-1.4,1.1-2.5,2.5-2.5h36.6c1.4,0,2.5,1.1,2.5,2.5v30.1
			C76.8,110,71.1,115.7,64,115.7z M40.2,75.3v27.6c0,4.3,3.5,7.8,7.8,7.8h16c4.3,0,7.8-3.5,7.8-7.8V75.3H40.2z"/>
		<rect x="53.7" y="47.3" class="st2" width="5" height="18.1"/>
		<rect x="62.8" y="56.4" class="st2" width="5" height="9"/>
		<rect x="44.3" y="56.4" class="st2" width="5" height="9"/>
	</g>
	<path class="st1" d="M111.9,142.4H14.8V14.8h97.1V142.4z M19.8,137.4h87.1V19.8H19.8V137.4z"/>
</g>
</svg>
