<?xml version="1.0" encoding="utf-8"?>
<!-- Generator: Adobe Illustrator 19.2.1, SVG Export Plug-In . SVG Version: 6.00 Build 0)  -->
<svg version="1.1" id="Layer_1" xmlns="http://www.w3.org/2000/svg" xmlns:xlink="http://www.w3.org/1999/xlink" x="0px" y="0px"
	 viewBox="0 0 1242.4 63.6" style="enable-background:new 0 0 1242.4 63.6;" xml:space="preserve">
<style type="text/css">
	.st0{fill:#9CAAB2;}
	.st1{fill:#3B5666;}
</style>
<g>
	<rect x="2.5" y="2.5" class="st0" width="1237.4" height="61.1"/>
	<path class="st1" d="M299.4,5H2.5C1.1,5,0,3.9,0,2.5S1.1,0,2.5,0h296.9c1.4,0,2.5,1.1,2.5,2.5S300.8,5,299.4,5z"/>
	<path class="st1" d="M885.3,5H363.8c-1.4,0-2.5-1.1-2.5-2.5s1.1-2.5,2.5-2.5h521.5c1.4,0,2.5,1.1,2.5,2.5S886.7,5,885.3,5z"/>
	<path class="st1" d="M1017,5h-65.6c-1.4,0-2.5-1.1-2.5-2.5S950,0,951.4,0h65.6c1.4,0,2.5,1.1,2.5,2.5S1018.4,5,1017,5z"/>
	<path class="st1" d="M1239.9,5h-116.4c-1.4,0-2.5-1.1-2.5-2.5s1.1-2.5,2.5-2.5h116.4c1.4,0,2.5,1.1,2.5,2.5S1241.3,5,1239.9,5z"/>
</g>
</svg>
