<?xml version="1.0" encoding="utf-8"?>
<!-- Generator: Adobe Illustrator 19.1.0, SVG Export Plug-In . SVG Version: 6.00 Build 0)  -->
<svg version="1.1" id="Layer_1" xmlns="http://www.w3.org/2000/svg" xmlns:xlink="http://www.w3.org/1999/xlink" x="0px" y="0px"
	 viewBox="-446 744 164.7 50" style="enable-background:new -446 744 164.7 50;" xml:space="preserve">
<style type="text/css">
	.st0{fill:#D5E59E;}
	.st1{fill:#62A87B;}
	.st2{opacity:0.5;}
	.st3{fill:#64A97B;}
	.st4{fill:#3C5666;}
</style>
<g>
	<path class="st0" d="M-442,778c3.9,6.7,10.3,11.9,18.3,14s16.2,0.8,22.9-3c-3.9-6.7-10.3-11.9-18.3-14
		C-427.1,772.8-435.3,774.1-442,778z"/>
</g>
<g>
	<path class="st1" d="M-446,744c0,11.6,4.4,23.1,13.2,32c8.8,8.9,20.4,13.2,32,13.2c0-11.6-4.4-23.1-13.2-32
		C-422.9,748.4-434.4,744-446,744z"/>
</g>
<g class="st2">
	<path class="st0" d="M-442,778c3.9,6.7,10.3,11.9,18.3,14s16.2,0.8,22.9-3c-3.9-6.7-10.3-11.9-18.3-14
		C-427.1,772.8-435.3,774.1-442,778z"/>
</g>
<g id="XMLID_10_">
	<g>
		<path class="st3" d="M-319.4,751.3c3,0,5.4,2.4,5.4,5.4s-2.4,5.4-5.4,5.4s-5.4-2.4-5.4-5.4S-322.4,751.3-319.4,751.3z M-317,756.7
			c0-1.3-1.1-2.4-2.4-2.4c-1.3,0-2.4,1.1-2.4,2.4s1.1,2.4,2.4,2.4C-318.1,759.1-317,758-317,756.7z"/>
	</g>
</g>
<path class="st4" d="M-328.7,793.9c-0.8,0-1.5-0.7-1.5-1.5v-4.3c-0.4,0.5-0.8,1-1.3,1.5c-2.8,2.8-6.5,4.3-10.4,4.3
	s-7.6-1.5-10.4-4.3c-2.8-2.8-4.3-6.5-4.3-10.4s1.5-7.6,4.3-10.4c2.8-2.8,6.5-4.3,10.4-4.3c0.8,0,1.5,0.7,1.5,1.5
	c0,0.8-0.7,1.5-1.5,1.5c-3.1,0-6.1,1.2-8.3,3.4c-2.2,2.2-3.4,5.2-3.4,8.3s1.2,6.1,3.4,8.3s5.2,3.4,8.3,3.4s6.1-1.2,8.3-3.4
	c2.2-2.2,3.4-5.2,3.4-8.3c0-0.8,0.7-1.5,1.5-1.5c0.8,0,1.5,0.7,1.5,1.5v13.2C-327.2,793.2-327.9,793.9-328.7,793.9z"/>
<path class="st4" d="M-374.3,793.9c-0.8,0-1.5-0.7-1.5-1.5v-13.2c0-3.9,1.5-7.6,4.3-10.4s6.5-4.3,10.4-4.3c0.8,0,1.5,0.7,1.5,1.5
	s-0.7,1.5-1.5,1.5c-3.1,0-6.1,1.2-8.3,3.4c-2.2,2.2-3.4,5.2-3.4,8.3v13.2C-372.8,793.3-373.4,793.9-374.3,793.9z"/>
<path class="st4" d="M-387.7,793.9c-0.8,0-1.5-0.7-1.5-1.5v-46.5c0-0.8,0.7-1.5,1.5-1.5c0.8,0,1.5,0.7,1.5,1.5v46.5
	C-386.2,793.3-386.9,793.9-387.7,793.9z"/>
<path class="st4" d="M-309.9,793.9c-0.8,0-1.5-0.7-1.5-1.5v-46.5c0-0.8,0.7-1.5,1.5-1.5c0.8,0,1.5,0.7,1.5,1.5v46.5
	C-308.4,793.3-309.1,793.9-309.9,793.9z"/>
<path class="st4" d="M-289.4,794H-300c-0.8,0-1.5-0.7-1.5-1.5s0.7-1.5,1.5-1.5l0,0h10.6c1.4,0,2.7-0.5,3.6-1.5c1-1,1.5-2.3,1.5-3.6
	c0-1.4-0.5-2.7-1.5-3.6c-1-1-2.3-1.5-3.6-1.5h-4c-2.2,0-4.2-0.8-5.7-2.4c-1.5-1.5-2.4-3.6-2.4-5.7c0-2.2,0.8-4.2,2.4-5.7
	c1.5-1.5,3.6-2.4,5.7-2.4h10.6l0,0c0.8,0,1.5,0.7,1.5,1.5s-0.7,1.5-1.5,1.5h-10.6c-1.4,0-2.7,0.5-3.6,1.5s-1.5,2.3-1.5,3.6
	c0,1.4,0.5,2.7,1.5,3.6c1,1,2.3,1.5,3.6,1.5h4c2.2,0,4.2,0.8,5.7,2.4c1.5,1.5,2.4,3.6,2.4,5.7c0,2.2-0.8,4.2-2.4,5.7
	C-285.2,793.1-287.2,794-289.4,794z"/>
<path class="st4" d="M-377,758.2h-10.7c-0.8,0-1.5-0.7-1.5-1.5s0.7-1.5,1.5-1.5h10.7c0.8,0,1.5,0.7,1.5,1.5S-376.2,758.2-377,758.2z
	"/>
<path class="st4" d="M-374.3,780.7c-0.8,0-1.5-0.7-1.5-1.5V766c0-0.8,0.7-1.5,1.5-1.5c0.8,0,1.5,0.7,1.5,1.5v13.2
	C-372.8,780-373.4,780.7-374.3,780.7z"/>
<path class="st3" d="M-361,758.2h-10.7c-0.8,0-1.5-0.7-1.5-1.5s0.7-1.5,1.5-1.5h10.7c0.8,0,1.5,0.7,1.5,1.5S-360.2,758.2-361,758.2z
	"/>
<path class="st3" d="M-344.9,758.2h-10.7c-0.8,0-1.5-0.7-1.5-1.5s0.7-1.5,1.5-1.5h10.7c0.8,0,1.5,0.7,1.5,1.5
	C-343.4,757.5-344.1,758.2-344.9,758.2z"/>
<path class="st3" d="M-328.7,758.2h-10.7c-0.8,0-1.5-0.7-1.5-1.5s0.7-1.5,1.5-1.5h10.7c0.8,0,1.5,0.7,1.5,1.5
	S-327.9,758.2-328.7,758.2z"/>
<path class="st4" d="M-319.4,778.1c-0.8,0-1.5-0.7-1.5-1.5v-10.7c0-0.8,0.7-1.5,1.5-1.5c0.8,0,1.5,0.7,1.5,1.5v10.7
	C-317.9,777.5-318.6,778.1-319.4,778.1z"/>
<path class="st4" d="M-319.4,793.9c-0.8,0-1.5-0.7-1.5-1.5v-10.7c0-0.8,0.7-1.5,1.5-1.5c0.8,0,1.5,0.7,1.5,1.5v10.7
	C-317.9,793.3-318.6,793.9-319.4,793.9z"/>
</svg>
