<?xml version="1.0" encoding="utf-8"?>
<!-- Generator: Adobe Illustrator 19.1.0, SVG Export Plug-In . SVG Version: 6.00 Build 0)  -->
<svg version="1.1" id="Layer_1" xmlns="http://www.w3.org/2000/svg" xmlns:xlink="http://www.w3.org/1999/xlink" x="0px" y="0px"
	 viewBox="361.4 363.8 227.1 65.3" style="enable-background:new 361.4 363.8 227.1 65.3;" xml:space="preserve">
<style type="text/css">
	.st0{fill:#D4ED9D;}
	.st1{fill:#3A5465;}
	.st2{fill:#D4E59D;}
</style>
<g id="Layer_1_1_">
	<path class="st0" d="M540.3,373.5c-3.5,0-6.4,2.9-6.4,6.4c0,3.5,2.9,6.4,6.4,6.4c3.5,0,6.4-2.8,6.4-6.4
		C546.7,376.4,543.8,373.5,540.3,373.5z M540.3,382.7c-1.6,0-2.8-1.3-2.8-2.8c0-1.6,1.3-2.8,2.8-2.8c1.5,0,2.8,1.3,2.8,2.8
		C543.1,381.4,541.9,382.7,540.3,382.7z"/>
	<path class="st1" d="M526.7,429c-1.1,0-1.9-0.9-1.9-1.9v-5.6c-0.5,0.7-1.1,1.3-1.7,1.9c-3.6,3.6-8.4,5.6-13.4,5.6s-9.8-2-13.4-5.6
		c-3.6-3.6-5.6-8.4-5.6-13.4s2-9.9,5.6-13.4c3.6-3.6,8.4-5.6,13.4-5.6c1.1,0,1.9,0.9,1.9,1.9c0,1.1-0.9,1.9-1.9,1.9
		c-4,0-7.8,1.6-10.7,4.4c-2.9,2.9-4.4,6.7-4.4,10.7c0,4,1.6,7.8,4.4,10.7c2.9,2.9,6.7,4.4,10.7,4.4c4,0,7.8-1.6,10.7-4.4
		c2.9-2.9,4.4-6.7,4.4-10.7c0-1.1,0.9-1.9,1.9-1.9c1.1,0,1.9,0.9,1.9,1.9V427C528.6,428.1,527.7,429,526.7,429z"/>
	<path class="st1" d="M466.4,429c-1,0-1.9-0.8-1.9-1.9v-16.6c0-4.9,1.9-9.6,5.4-13c3.5-3.5,8.1-5.4,13-5.4c1,0,1.9,0.8,1.9,1.9
		c0,1-0.8,1.9-1.9,1.9c-3.9,0-7.6,1.5-10.4,4.3c-2.8,2.8-4.3,6.5-4.3,10.4v16.6C468.2,428.1,467.4,429,466.4,429z"/>
	<path class="st1" d="M448.3,429c-1,0-1.8-0.8-1.8-1.8v-61.1c0-1,0.8-1.8,1.8-1.8c1,0,1.8,0.8,1.8,1.8v61.1
		C450.1,428.2,449.3,429,448.3,429z"/>
	<path class="st1" d="M553.6,429c-1,0-1.8-0.8-1.8-1.8v-61.1c0-1,0.8-1.8,1.8-1.8c1,0,1.8,0.8,1.8,1.8v61.1
		C555.3,428.2,554.5,429,553.6,429z"/>
	<path class="st1" d="M578.9,429l-12.6,0c-1,0-1.8-0.8-1.8-1.8c0-1,0.8-1.8,1.8-1.8c0,0,0,0,0,0l12.6,0c1.6,0,3.1-0.6,4.3-1.8
		c1.1-1.1,1.8-2.7,1.8-4.3c0-1.6-0.6-3.1-1.8-4.3c-1.1-1.1-2.7-1.8-4.3-1.8l-4.7,0c-2.6,0-5-1-6.8-2.8s-2.8-4.2-2.8-6.8
		c0-2.6,1-5,2.8-6.8c1.8-1.8,4.2-2.8,6.8-2.8l12.6,0c0,0,0,0,0,0c1,0,1.8,0.8,1.8,1.8s-0.8,1.8-1.8,1.8l-12.6,0
		c-1.6,0-3.2,0.6-4.3,1.8c-1.1,1.1-1.8,2.7-1.8,4.3c0,1.6,0.6,3.1,1.8,4.3c1.1,1.1,2.7,1.8,4.3,1.8l4.7,0c2.6,0,5,1,6.8,2.8
		c1.8,1.8,2.8,4.2,2.8,6.8s-1,5-2.8,6.8C583.9,428,581.4,429,578.9,429z"/>
	<path class="st1" d="M461.1,381.6h-12.7c-1,0-1.8-0.8-1.8-1.8s0.8-1.8,1.8-1.8h12.7c1,0,1.8,0.8,1.8,1.8S462,381.6,461.1,381.6z"/>
	<path class="st1" d="M466.4,412.4c-1,0-1.9-0.8-1.9-1.9V394c0-1,0.8-1.9,1.9-1.9c1,0,1.9,0.8,1.9,1.9v16.5
		C468.2,411.6,467.4,412.4,466.4,412.4z"/>
	<path class="st0" d="M483,381.6h-12.7c-1,0-1.8-0.8-1.8-1.8s0.8-1.8,1.8-1.8H483c1,0,1.8,0.8,1.8,1.8S484,381.6,483,381.6z"/>
	<path class="st0" d="M505.1,381.6h-12.7c-1,0-1.8-0.8-1.8-1.8s0.8-1.8,1.8-1.8h12.7c1,0,1.8,0.8,1.8,1.8S506.1,381.6,505.1,381.6z"
		/>
	<path class="st0" d="M527.3,381.6h-12.7c-1,0-1.8-0.8-1.8-1.8s0.8-1.8,1.8-1.8h12.7c1,0,1.8,0.8,1.8,1.8S528.2,381.6,527.3,381.6z"
		/>
	<path class="st1" d="M540.3,407.3c-1,0-1.8-0.8-1.8-1.8v-12.7c0-1,0.8-1.8,1.8-1.8c1,0,1.8,0.8,1.8,1.8v12.7
		C542.1,406.5,541.3,407.3,540.3,407.3z"/>
	<path class="st1" d="M540.3,429c-1,0-1.8-0.8-1.8-1.8v-12.7c0-1,0.8-1.8,1.8-1.8c1,0,1.8,0.8,1.8,1.8v12.7
		C542.1,428.2,541.3,429,540.3,429z"/>
	<circle class="st1" cx="540.3" cy="379.9" r="2.8"/>
</g>
<g id="Layer_5">
	<g>
		<circle class="st2" cx="394.1" cy="396.5" r="32.7"/>
	</g>
</g>
<g id="Layer_14">
	<path class="st1" d="M412.7,387.6c0-0.5,0-0.9-0.1-1.4c0-0.5-0.1-0.9-0.2-1.4c-0.1-0.4-0.2-0.9-0.3-1.3c-0.1-0.4-0.3-0.8-0.5-1.3
		c-0.2-0.4-0.4-0.8-0.6-1.2c-0.2-0.4-0.4-0.8-0.7-1.1c-0.2-0.4-0.5-0.7-0.8-1.1c-0.3-0.3-0.6-0.7-0.9-1c-0.3-0.3-0.6-0.6-1-0.9
		c-0.3-0.3-0.7-0.5-1-0.8c-0.4-0.2-0.7-0.5-1.1-0.7c-0.3-0.2-0.7-0.2-1.1,0c-0.4,0.2-0.8,0.4-1.1,0.7c-0.4,0.2-0.7,0.5-1.1,0.8
		c-0.3,0.3-0.7,0.6-1,0.9c-0.3,0.3-0.6,0.6-0.9,1c-0.3,0.3-0.5,0.7-0.8,1.1c-0.2,0.4-0.5,0.7-0.7,1.1c-0.2,0.4-0.4,0.8-0.6,1.2
		c-0.2,0.4-0.3,0.8-0.5,1.3c-0.1,0.4-0.2,0.9-0.3,1.3c-0.1,0.4-0.2,0.9-0.2,1.4c0,0.5-0.1,0.9-0.1,1.4c0,3.3,2.1,6.2,5.1,7.2l0.6-4
		l0.9-6.2v10.6c0,0,0,0,0,0l0,8.2c-1.5-1.7-3.7-2.7-6.2-2.7h-7.4c-3.2,0-5.8-2.4-6.1-5.5c3.8-0.5,6.7-3.7,6.7-7.6
		c0-0.5,0-0.9-0.1-1.4c0-0.5-0.1-0.9-0.2-1.4c-0.1-0.4-0.2-0.9-0.3-1.3c-0.1-0.4-0.3-0.8-0.5-1.3c-0.2-0.4-0.4-0.8-0.6-1.2
		c-0.2-0.4-0.4-0.8-0.7-1.1c-0.2-0.4-0.5-0.7-0.8-1.1c-0.3-0.3-0.6-0.7-0.9-1c-0.3-0.3-0.6-0.6-1-0.9c-0.3-0.3-0.7-0.5-1-0.8
		c-0.4-0.2-0.7-0.5-1.1-0.7c-0.3-0.2-0.8-0.2-1.1,0c-0.4,0.2-0.8,0.4-1.1,0.7c-0.4,0.2-0.7,0.5-1,0.8c-0.3,0.3-0.7,0.6-1,0.9
		c-0.3,0.3-0.6,0.6-0.9,1c-0.3,0.3-0.5,0.7-0.8,1.1c-0.2,0.4-0.5,0.7-0.7,1.1c-0.2,0.4-0.4,0.8-0.6,1.2c-0.2,0.4-0.3,0.8-0.5,1.3
		c-0.1,0.4-0.2,0.9-0.3,1.3c-0.1,0.5-0.2,0.9-0.2,1.4c0,0.5-0.1,0.9-0.1,1.4c0,3.3,2.1,6.1,5,7.2l0.5-4l0.9-6.2v9.6
		c0,0.1,0,0.2,0,0.3c0,0.2,0,0.4,0,0.6v0.1c0,0,0,0,0,0c0.4,4.3,4,7.8,8.4,7.8h7.4c3.4,0,6.2,2.8,6.2,6.2c0,0,0,0.1,0,0.1v0.2
		c-1.7,0.5-3,2.1-3,4c0,2.3,1.9,4.1,4.1,4.1c2.3,0,4.1-1.9,4.1-4.1c0-1.9-1.3-3.5-3-4l0-14.2C409.9,394.7,412.7,391.5,412.7,387.6z
		 M406.9,413.4c0,1-0.8,1.8-1.8,1.8c-1,0-1.8-0.8-1.8-1.8c0-1,0.8-1.8,1.8-1.8C406,411.5,406.9,412.4,406.9,413.4z"/>
</g>
<g id="Layer_13">
</g>
</svg>
