<?xml version="1.0" encoding="utf-8"?>
<!-- Generator: Adobe Illustrator 19.1.0, SVG Export Plug-In . SVG Version: 6.00 Build 0)  -->
<svg version="1.1" id="Layer_1" xmlns="http://www.w3.org/2000/svg" xmlns:xlink="http://www.w3.org/1999/xlink" x="0px" y="0px"
	 viewBox="0 0 154.3 38.4" style="enable-background:new 0 0 154.3 38.4;" xml:space="preserve">
<style type="text/css">
	.st0{fill:#3C5666;}
	.st1{fill:#62A87B;}
	.st2{fill:#030303;}
</style>
<g id="XMLID_8_">
	<g>
		<path class="st0" d="M125,5.7c2.3,0,4.1,1.9,4.1,4.1c0,2.3-1.8,4.1-4.1,4.1s-4.1-1.8-4.1-4.1S122.8,5.7,125,5.7z M126.8,9.9
			c0-1-0.8-1.8-1.8-1.8c-1,0-1.8,0.8-1.8,1.8c0,1,0.8,1.8,1.8,1.8C126,11.7,126.8,10.9,126.8,9.9z"/>
		<path class="st1" d="M125,8c1,0,1.8,0.8,1.8,1.8c0,1-0.8,1.8-1.8,1.8c-1,0-1.8-0.8-1.8-1.8C123.2,8.9,124,8,125,8z"/>
	</g>
</g>
<path class="st0" d="M117.9,38.4c-0.6,0-1.2-0.5-1.2-1.2v-3.3c-0.3,0.4-0.6,0.8-1,1.2c-2.1,2.1-5,3.3-8,3.3s-5.9-1.2-8-3.3
	c-2.1-2.1-3.3-5-3.3-8c0-3,1.2-5.9,3.3-8c2.1-2.1,5-3.3,8-3.3c0.6,0,1.2,0.5,1.2,1.2s-0.5,1.2-1.2,1.2c-2.4,0-4.7,0.9-6.4,2.6
	s-2.6,4-2.6,6.4c0,2.4,0.9,4.7,2.6,6.4c1.7,1.7,4,2.6,6.4,2.6s4.7-0.9,6.4-2.6c1.7-1.7,2.6-4,2.6-6.4c0-0.6,0.5-1.1,1.2-1.1
	c0.6,0,1.2,0.5,1.2,1.1v10.2C119,37.9,118.5,38.4,117.9,38.4z"/>
<path class="st0" d="M82.9,38.4c-0.6,0-1.2-0.5-1.2-1.1V27.1c0-3,1.2-5.9,3.3-8c2.1-2.1,5-3.3,8-3.3c0.6,0,1.2,0.5,1.2,1.2
	s-0.5,1.1-1.2,1.1c-2.4,0-4.7,0.9-6.4,2.6c-1.7,1.7-2.6,4-2.6,6.4v10.2C84.1,37.9,83.6,38.4,82.9,38.4z"/>
<path class="st0" d="M72.6,38.4c-0.6,0-1.2-0.5-1.2-1.1V1.6c0-0.6,0.5-1.1,1.2-1.1s1.2,0.5,1.2,1.1v35.7
	C73.7,37.9,73.2,38.4,72.6,38.4z"/>
<path class="st0" d="M132.3,38.4c-0.6,0-1.2-0.5-1.2-1.1V1.6c0-0.6,0.5-1.2,1.2-1.2s1.2,0.5,1.2,1.2v35.7
	C133.5,37.9,132.9,38.4,132.3,38.4z"/>
<path class="st0" d="M148.1,38.4l-8.2,0c-0.6,0-1.1-0.5-1.1-1.2s0.5-1.1,1.1-1.1c0,0,0,0,0,0l8.2,0c1,0,2-0.4,2.8-1.1
	c0.7-0.7,1.1-1.7,1.1-2.8c0-1-0.4-2-1.2-2.8c-0.7-0.7-1.7-1.2-2.8-1.2H145c-1.7,0-3.2-0.6-4.4-1.8c-1.2-1.2-1.8-2.7-1.8-4.4
	c0-1.7,0.6-3.2,1.8-4.4c1.2-1.2,2.7-1.8,4.4-1.8l8.1,0c0,0,0,0,0,0c0.6,0,1.1,0.5,1.1,1.1c0,0.6-0.5,1.2-1.1,1.2l-8.2,0
	c-1.1,0-2,0.4-2.8,1.2c-0.7,0.7-1.2,1.7-1.2,2.8s0.4,2,1.2,2.8c0.7,0.7,1.7,1.2,2.8,1.2l3.1,0c1.7,0,3.2,0.6,4.4,1.8
	c1.2,1.2,1.8,2.7,1.8,4.4c0,1.7-0.6,3.2-1.8,4.4C151.3,37.8,149.7,38.4,148.1,38.4z"/>
<path class="st0" d="M80.8,11h-8.2c-0.6,0-1.2-0.5-1.2-1.2s0.5-1.2,1.2-1.2h8.2c0.6,0,1.2,0.5,1.2,1.2S81.5,11,80.8,11z"/>
<path class="st0" d="M82.9,28.3c-0.6,0-1.2-0.5-1.2-1.1V17c0-0.6,0.5-1.2,1.2-1.2s1.2,0.5,1.2,1.2v10.1
	C84.1,27.7,83.6,28.3,82.9,28.3z"/>
<path class="st0" d="M93.1,11h-8.2c-0.6,0-1.2-0.5-1.2-1.2s0.5-1.2,1.2-1.2h8.2c0.6,0,1.2,0.5,1.2,1.2S93.7,11,93.1,11z"/>
<path class="st0" d="M105.4,11h-8.2c-0.6,0-1.2-0.5-1.2-1.2s0.5-1.2,1.2-1.2h8.2c0.6,0,1.2,0.5,1.2,1.2S106.1,11,105.4,11z"/>
<path class="st0" d="M117.9,11h-8.2c-0.6,0-1.2-0.5-1.2-1.2s0.5-1.2,1.2-1.2h8.2c0.6,0,1.2,0.5,1.2,1.2S118.5,11,117.9,11z"/>
<path class="st0" d="M125,26.3c-0.6,0-1.1-0.5-1.1-1.2v-8.2c0-0.6,0.5-1.2,1.1-1.2s1.2,0.5,1.2,1.2v8.2
	C126.2,25.8,125.7,26.3,125,26.3z"/>
<path class="st0" d="M125,38.4c-0.6,0-1.1-0.5-1.1-1.1V29c0-0.6,0.5-1.2,1.1-1.2s1.2,0.5,1.2,1.2v8.2
	C126.2,37.9,125.7,38.4,125,38.4z"/>
<g>
	<polygon class="st1" points="1.5,36.8 21.9,1.5 42.2,36.8 	"/>
	<path class="st0" d="M42.3,38.3C42.3,38.3,42.3,38.3,42.3,38.3H1.5c-0.5,0-1-0.3-1.3-0.8s-0.3-1,0-1.5L20.6,0.8
		C20.8,0.3,21.3,0,21.9,0s1,0.3,1.3,0.8l20.3,35.1c0.2,0.3,0.3,0.6,0.3,0.9C43.8,37.6,43.1,38.3,42.3,38.3z M4.1,35.3h35.5L21.9,4.5
		L4.1,35.3z"/>
</g>
<g>
	<polygon class="st1" points="62.6,36.8 47.1,9.9 21.9,1.5 42.2,36.8 	"/>
	<path class="st0" d="M62.6,38.3H42.2c-0.5,0-1-0.3-1.3-0.8L20.6,2.3c-0.3-0.5-0.3-1.2,0.1-1.7c0.4-0.5,1-0.7,1.6-0.5l25.2,8.4
		c0.3,0.1,0.6,0.4,0.8,0.7L63.9,36c0.3,0.5,0.3,1,0,1.5C63.6,38,63.2,38.3,62.6,38.3z M43.1,35.3H60l-14-24.2L25.1,4.2L43.1,35.3z"
		/>
</g>
<g>
	<g>
		<polyline class="st2" points="21.9,1.5 21.9,19.1 21.9,36.8 		"/>
		<path class="st0" d="M21.9,38.3c-0.8,0-1.5-0.7-1.5-1.5V1.5C20.4,0.7,21,0,21.9,0s1.5,0.7,1.5,1.5v35.3
			C23.4,37.6,22.7,38.3,21.9,38.3z"/>
	</g>
</g>
<g>
	<path class="st0" d="M42.2,36.8c0,0-20.4,0-20.4-20.7c0-17.6,0,20.7,0,20.7H42.2z"/>
	<path class="st0" d="M42.2,38.3H21.9c-0.8,0-1.5-0.7-1.5-1.5V11.4c0-0.8,0.7-1.5,1.5-1.5s1.5,0.7,1.5,1.5V16
		c0,19,18.1,19.2,18.9,19.2h0c0.8,0,1.5,0.7,1.5,1.5C43.7,37.6,43.1,38.3,42.2,38.3C42.3,38.3,42.3,38.3,42.2,38.3L42.2,38.3
		C42.3,38.3,42.3,38.3,42.2,38.3C42.3,38.3,42.3,38.3,42.2,38.3C42.3,38.3,42.3,38.3,42.2,38.3L42.2,38.3
		C42.2,38.3,42.2,38.3,42.2,38.3z M23.4,35.3H31c-2.8-1.5-5.6-3.7-7.6-7.1V35.3z"/>
</g>
</svg>
