<?xml version="1.0" encoding="utf-8"?>
<!-- Generator: Adobe Illustrator 19.1.0, SVG Export Plug-In . SVG Version: 6.00 Build 0)  -->
<svg version="1.1" id="Layer_1" xmlns="http://www.w3.org/2000/svg" xmlns:xlink="http://www.w3.org/1999/xlink" x="0px" y="0px"
	 viewBox="170.4 728.5 227.2 65.4" style="enable-background:new 170.4 728.5 227.2 65.4;" xml:space="preserve">
<style type="text/css">
	.st0{fill:#D4ED9D;}
	.st1{fill:#3A5465;}
	.st2{fill:#D4E59D;}
</style>
<g id="Layer_1_1_">
	<path class="st0" d="M349.3,738.2c-3.5,0-6.4,2.9-6.4,6.4s2.9,6.4,6.4,6.4s6.4-2.8,6.4-6.4C355.7,741.1,352.8,738.2,349.3,738.2z
		 M349.3,747.4c-1.6,0-2.8-1.3-2.8-2.8c0-1.6,1.3-2.8,2.8-2.8s2.8,1.3,2.8,2.8C352.1,746.1,350.9,747.4,349.3,747.4z"/>
	<path class="st1" d="M335.7,793.7c-1.1,0-1.9-0.9-1.9-1.9v-5.6c-0.5,0.7-1.1,1.3-1.7,1.9c-3.6,3.6-8.4,5.6-13.4,5.6
		s-9.8-2-13.4-5.6c-3.6-3.6-5.6-8.4-5.6-13.4s2-9.9,5.6-13.4c3.6-3.6,8.4-5.6,13.4-5.6c1.1,0,1.9,0.9,1.9,1.9c0,1.1-0.9,1.9-1.9,1.9
		c-4,0-7.8,1.6-10.7,4.4c-2.9,2.9-4.4,6.7-4.4,10.7s1.6,7.8,4.4,10.7c2.9,2.9,6.7,4.4,10.7,4.4c4,0,7.8-1.6,10.7-4.4
		c2.9-2.9,4.4-6.7,4.4-10.7c0-1.1,0.9-1.9,1.9-1.9c1.1,0,1.9,0.9,1.9,1.9v17.1C337.6,792.8,336.7,793.7,335.7,793.7z"/>
	<path class="st1" d="M275.4,793.7c-1,0-1.9-0.8-1.9-1.9v-16.6c0-4.9,1.9-9.6,5.4-13c3.5-3.5,8.1-5.4,13-5.4c1,0,1.9,0.8,1.9,1.9
		c0,1-0.8,1.9-1.9,1.9c-3.9,0-7.6,1.5-10.4,4.3c-2.8,2.8-4.3,6.5-4.3,10.4v16.6C277.2,792.8,276.4,793.7,275.4,793.7z"/>
	<path class="st1" d="M257.3,793.7c-1,0-1.8-0.8-1.8-1.8v-61.1c0-1,0.8-1.8,1.8-1.8s1.8,0.8,1.8,1.8v61.1
		C259.1,792.9,258.3,793.7,257.3,793.7z"/>
	<path class="st1" d="M362.6,793.7c-1,0-1.8-0.8-1.8-1.8v-61.1c0-1,0.8-1.8,1.8-1.8s1.8,0.8,1.8,1.8v61.1
		C364.3,792.9,363.5,793.7,362.6,793.7z"/>
	<path class="st1" d="M387.9,793.7h-12.6c-1,0-1.8-0.8-1.8-1.8s0.8-1.8,1.8-1.8l0,0h12.6c1.6,0,3.1-0.6,4.3-1.8
		c1.1-1.1,1.8-2.7,1.8-4.3c0-1.6-0.6-3.1-1.8-4.3c-1.1-1.1-2.7-1.8-4.3-1.8h-4.7c-2.6,0-5-1-6.8-2.8s-2.8-4.2-2.8-6.8
		c0-2.6,1-5,2.8-6.8s4.2-2.8,6.8-2.8h12.6l0,0c1,0,1.8,0.8,1.8,1.8s-0.8,1.8-1.8,1.8h-12.6c-1.6,0-3.2,0.6-4.3,1.8
		c-1.1,1.1-1.8,2.7-1.8,4.3c0,1.6,0.6,3.1,1.8,4.3c1.1,1.1,2.7,1.8,4.3,1.8h4.7c2.6,0,5,1,6.8,2.8s2.8,4.2,2.8,6.8s-1,5-2.8,6.8
		S390.4,793.7,387.9,793.7z"/>
	<path class="st1" d="M270.1,746.3h-12.7c-1,0-1.8-0.8-1.8-1.8s0.8-1.8,1.8-1.8h12.7c1,0,1.8,0.8,1.8,1.8S271,746.3,270.1,746.3z"/>
	<path class="st1" d="M275.4,777.1c-1,0-1.9-0.8-1.9-1.9v-16.5c0-1,0.8-1.9,1.9-1.9c1,0,1.9,0.8,1.9,1.9v16.5
		C277.2,776.3,276.4,777.1,275.4,777.1z"/>
	<path class="st0" d="M292,746.3h-12.7c-1,0-1.8-0.8-1.8-1.8s0.8-1.8,1.8-1.8H292c1,0,1.8,0.8,1.8,1.8S293,746.3,292,746.3z"/>
	<path class="st0" d="M314.1,746.3h-12.7c-1,0-1.8-0.8-1.8-1.8s0.8-1.8,1.8-1.8h12.7c1,0,1.8,0.8,1.8,1.8S315.1,746.3,314.1,746.3z"
		/>
	<path class="st0" d="M336.3,746.3h-12.7c-1,0-1.8-0.8-1.8-1.8s0.8-1.8,1.8-1.8h12.7c1,0,1.8,0.8,1.8,1.8S337.2,746.3,336.3,746.3z"
		/>
	<path class="st1" d="M349.3,772c-1,0-1.8-0.8-1.8-1.8v-12.7c0-1,0.8-1.8,1.8-1.8s1.8,0.8,1.8,1.8v12.7
		C351.1,771.2,350.3,772,349.3,772z"/>
	<path class="st1" d="M349.3,793.7c-1,0-1.8-0.8-1.8-1.8v-12.7c0-1,0.8-1.8,1.8-1.8s1.8,0.8,1.8,1.8v12.7
		C351.1,792.9,350.3,793.7,349.3,793.7z"/>
	<circle class="st1" cx="349.3" cy="744.6" r="2.8"/>
</g>
<g id="Layer_5_1_">
	<g>
		<circle class="st2" cx="202.9" cy="761.4" r="32.7"/>
	</g>
</g>
<g id="Layer_14_1_">
	<path class="st1" d="M221.6,752.5c0-0.5,0-0.9-0.1-1.4c0-0.5-0.1-0.9-0.2-1.4c-0.1-0.4-0.2-0.9-0.3-1.3c-0.1-0.4-0.3-0.8-0.5-1.3
		c-0.2-0.4-0.4-0.8-0.6-1.2c-0.2-0.4-0.4-0.8-0.7-1.1c-0.2-0.4-0.5-0.7-0.8-1.1c-0.3-0.3-0.6-0.7-0.9-1c-0.3-0.3-0.6-0.6-1-0.9
		c-0.3-0.3-0.7-0.5-1-0.8c-0.4-0.2-0.7-0.5-1.1-0.7c-0.3-0.2-0.7-0.2-1.1,0c-0.4,0.2-0.8,0.4-1.1,0.7c-0.4,0.2-0.7,0.5-1.1,0.8
		c-0.3,0.3-0.7,0.6-1,0.9c-0.3,0.3-0.6,0.6-0.9,1c-0.3,0.3-0.5,0.7-0.8,1.1c-0.2,0.4-0.5,0.7-0.7,1.1c-0.2,0.4-0.4,0.8-0.6,1.2
		c-0.2,0.4-0.3,0.8-0.5,1.3c-0.1,0.4-0.2,0.9-0.3,1.3c-0.1,0.4-0.2,0.9-0.2,1.4c0,0.5-0.1,0.9-0.1,1.4c0,3.3,2.1,6.2,5.1,7.2l0.6-4
		l0.9-6.2v10.6c0,0,0,0,0,0l0,8.2c-1.5-1.7-3.7-2.7-6.2-2.7h-7.4c-3.2,0-5.8-2.4-6.1-5.5c3.8-0.5,6.7-3.7,6.7-7.6
		c0-0.5,0-0.9-0.1-1.4c0-0.5-0.1-0.9-0.2-1.4c-0.1-0.4-0.2-0.9-0.3-1.3c-0.1-0.4-0.3-0.8-0.5-1.3c-0.2-0.4-0.4-0.8-0.6-1.2
		c-0.2-0.4-0.4-0.8-0.7-1.1c-0.2-0.4-0.5-0.7-0.8-1.1c-0.3-0.3-0.6-0.7-0.9-1c-0.3-0.3-0.6-0.6-1-0.9c-0.3-0.3-0.7-0.5-1-0.8
		c-0.4-0.2-0.7-0.5-1.1-0.7c-0.3-0.2-0.8-0.2-1.1,0c-0.4,0.2-0.8,0.4-1.1,0.7c-0.4,0.2-0.7,0.5-1,0.8c-0.3,0.3-0.7,0.6-1,0.9
		c-0.3,0.3-0.6,0.6-0.9,1c-0.3,0.3-0.5,0.7-0.8,1.1c-0.2,0.4-0.5,0.7-0.7,1.1c-0.2,0.4-0.4,0.8-0.6,1.2c-0.2,0.4-0.3,0.8-0.5,1.3
		c-0.1,0.4-0.2,0.9-0.3,1.3c-0.1,0.5-0.2,0.9-0.2,1.4c0,0.5-0.1,0.9-0.1,1.4c0,3.3,2.1,6.1,5,7.2l0.5-4l0.9-6.2v9.6
		c0,0.1,0,0.2,0,0.3c0,0.2,0,0.4,0,0.6v0.1c0,0,0,0,0,0c0.4,4.3,4,7.8,8.4,7.8h7.4c3.4,0,6.2,2.8,6.2,6.2c0,0,0,0.1,0,0.1v0.2
		c-1.7,0.5-3,2.1-3,4c0,2.3,1.9,4.1,4.1,4.1c2.3,0,4.1-1.9,4.1-4.1c0-1.9-1.3-3.5-3-4l0-14.2C218.7,759.5,221.6,756.3,221.6,752.5z
		 M215.7,778.2c0,1-0.8,1.8-1.8,1.8c-1,0-1.8-0.8-1.8-1.8c0-1,0.8-1.8,1.8-1.8C214.9,776.4,215.7,777.2,215.7,778.2z"/>
</g>
</svg>
