<?xml version="1.0" encoding="utf-8"?>
<!-- Generator: Adobe Illustrator 19.1.0, SVG Export Plug-In . SVG Version: 6.00 Build 0)  -->
<svg version="1.1" id="Layer_1" xmlns="http://www.w3.org/2000/svg" xmlns:xlink="http://www.w3.org/1999/xlink" x="0px" y="0px"
	 viewBox="-228 377.6 154.3 38.4" style="enable-background:new -228 377.6 154.3 38.4;" xml:space="preserve">
<style type="text/css">
	.st0{fill:#3C5666;}
	.st1{fill:#62A87B;}
	.st2{fill:#030303;}
</style>
<g id="XMLID_8_">
	<g>
		<path class="st0" d="M-103,383.3c2.3,0,4.1,1.9,4.1,4.1c0,2.3-1.8,4.1-4.1,4.1s-4.1-1.8-4.1-4.1
			C-107.1,385.1-105.2,383.3-103,383.3z M-101.2,387.5c0-1-0.8-1.8-1.8-1.8s-1.8,0.8-1.8,1.8s0.8,1.8,1.8,1.8
			S-101.2,388.5-101.2,387.5z"/>
		<path class="st1" d="M-103,385.6c1,0,1.8,0.8,1.8,1.8s-0.8,1.8-1.8,1.8s-1.8-0.8-1.8-1.8C-104.8,386.5-104,385.6-103,385.6z"/>
	</g>
</g>
<path class="st0" d="M-110.1,416c-0.6,0-1.2-0.5-1.2-1.2v-3.3c-0.3,0.4-0.6,0.8-1,1.2c-2.1,2.1-5,3.3-8,3.3s-5.9-1.2-8-3.3
	c-2.1-2.1-3.3-5-3.3-8s1.2-5.9,3.3-8c2.1-2.1,5-3.3,8-3.3c0.6,0,1.2,0.5,1.2,1.2c0,0.7-0.5,1.2-1.2,1.2c-2.4,0-4.7,0.9-6.4,2.6
	c-1.7,1.7-2.6,4-2.6,6.4s0.9,4.7,2.6,6.4s4,2.6,6.4,2.6s4.7-0.9,6.4-2.6c1.7-1.7,2.6-4,2.6-6.4c0-0.6,0.5-1.1,1.2-1.1
	c0.6,0,1.2,0.5,1.2,1.1V415C-109,415.5-109.5,416-110.1,416z"/>
<path class="st0" d="M-145.1,416c-0.6,0-1.2-0.5-1.2-1.1v-10.2c0-3,1.2-5.9,3.3-8s5-3.3,8-3.3c0.6,0,1.2,0.5,1.2,1.2
	s-0.5,1.1-1.2,1.1c-2.4,0-4.7,0.9-6.4,2.6c-1.7,1.7-2.6,4-2.6,6.4v10.2C-143.9,415.5-144.4,416-145.1,416z"/>
<path class="st0" d="M-155.4,416c-0.6,0-1.2-0.5-1.2-1.1v-35.7c0-0.6,0.5-1.1,1.2-1.1c0.7,0,1.2,0.5,1.2,1.1v35.7
	C-154.3,415.5-154.8,416-155.4,416z"/>
<path class="st0" d="M-95.7,416c-0.6,0-1.2-0.5-1.2-1.1v-35.7c0-0.6,0.5-1.2,1.2-1.2s1.2,0.5,1.2,1.2v35.7
	C-94.5,415.5-95.1,416-95.7,416z"/>
<path class="st0" d="M-79.9,416h-8.2c-0.6,0-1.1-0.5-1.1-1.2c0-0.7,0.5-1.1,1.1-1.1l0,0h8.2c1,0,2-0.4,2.8-1.1
	c0.7-0.7,1.1-1.7,1.1-2.8c0-1-0.4-2-1.2-2.8c-0.7-0.7-1.7-1.2-2.8-1.2h-3c-1.7,0-3.2-0.6-4.4-1.8c-1.2-1.2-1.8-2.7-1.8-4.4
	c0-1.7,0.6-3.2,1.8-4.4s2.7-1.8,4.4-1.8h8.1l0,0c0.6,0,1.1,0.5,1.1,1.1c0,0.6-0.5,1.2-1.1,1.2h-8.2c-1.1,0-2,0.4-2.8,1.2
	c-0.7,0.7-1.2,1.7-1.2,2.8s0.4,2,1.2,2.8c0.7,0.7,1.7,1.2,2.8,1.2h3.1c1.7,0,3.2,0.6,4.4,1.8c1.2,1.2,1.8,2.7,1.8,4.4
	c0,1.7-0.6,3.2-1.8,4.4C-76.7,415.4-78.3,416-79.9,416z"/>
<path class="st0" d="M-147.2,388.6h-8.2c-0.6,0-1.2-0.5-1.2-1.2c0-0.7,0.5-1.2,1.2-1.2h8.2c0.6,0,1.2,0.5,1.2,1.2
	C-146,388.1-146.5,388.6-147.2,388.6z"/>
<path class="st0" d="M-145.1,405.9c-0.6,0-1.2-0.5-1.2-1.1v-10.2c0-0.6,0.5-1.2,1.2-1.2c0.7,0,1.2,0.5,1.2,1.2v10.1
	C-143.9,405.3-144.4,405.9-145.1,405.9z"/>
<path class="st0" d="M-134.9,388.6h-8.2c-0.6,0-1.2-0.5-1.2-1.2c0-0.7,0.5-1.2,1.2-1.2h8.2c0.6,0,1.2,0.5,1.2,1.2
	C-133.7,388.1-134.3,388.6-134.9,388.6z"/>
<path class="st0" d="M-122.6,388.6h-8.2c-0.6,0-1.2-0.5-1.2-1.2c0-0.7,0.5-1.2,1.2-1.2h8.2c0.6,0,1.2,0.5,1.2,1.2
	C-121.4,388.1-121.9,388.6-122.6,388.6z"/>
<path class="st0" d="M-110.1,388.6h-8.2c-0.6,0-1.2-0.5-1.2-1.2c0-0.7,0.5-1.2,1.2-1.2h8.2c0.6,0,1.2,0.5,1.2,1.2
	C-108.9,388.1-109.5,388.6-110.1,388.6z"/>
<path class="st0" d="M-103,403.9c-0.6,0-1.1-0.5-1.1-1.2v-8.2c0-0.6,0.5-1.2,1.1-1.2s1.2,0.5,1.2,1.2v8.2
	C-101.8,403.4-102.3,403.9-103,403.9z"/>
<path class="st0" d="M-103,416c-0.6,0-1.1-0.5-1.1-1.1v-8.3c0-0.6,0.5-1.2,1.1-1.2s1.2,0.5,1.2,1.2v8.2
	C-101.8,415.5-102.3,416-103,416z"/>
<g>
	<polygon class="st1" points="-226.5,414.4 -206.1,379.1 -185.8,414.4 	"/>
	<path class="st0" d="M-185.7,415.9L-185.7,415.9h-40.8c-0.5,0-1-0.3-1.3-0.8s-0.3-1,0-1.5l20.4-35.2c0.2-0.5,0.7-0.8,1.3-0.8
		c0.6,0,1,0.3,1.3,0.8l20.3,35.1c0.2,0.3,0.3,0.6,0.3,0.9C-184.2,415.2-184.9,415.9-185.7,415.9z M-223.9,412.9h35.5l-17.7-30.8
		L-223.9,412.9z"/>
</g>
<g>
	<polygon class="st1" points="-165.4,414.4 -180.9,387.5 -206.1,379.1 -185.8,414.4 	"/>
	<path class="st0" d="M-165.4,415.9h-20.4c-0.5,0-1-0.3-1.3-0.8l-20.3-35.2c-0.3-0.5-0.3-1.2,0.1-1.7c0.4-0.5,1-0.7,1.6-0.5
		l25.2,8.4c0.3,0.1,0.6,0.4,0.8,0.7l15.6,26.8c0.3,0.5,0.3,1,0,1.5C-164.4,415.6-164.8,415.9-165.4,415.9z M-184.9,412.9h16.9
		l-14-24.2l-20.9-6.9L-184.9,412.9z"/>
</g>
<g>
	<g>
		<polyline class="st2" points="-206.1,379.1 -206.1,396.7 -206.1,414.4 		"/>
		<path class="st0" d="M-206.1,415.9c-0.8,0-1.5-0.7-1.5-1.5v-35.3c0-0.8,0.6-1.5,1.5-1.5c0.9,0,1.5,0.7,1.5,1.5v35.3
			C-204.6,415.2-205.3,415.9-206.1,415.9z"/>
	</g>
</g>
<g>
	<path class="st0" d="M-185.8,414.4c0,0-20.4,0-20.4-20.7c0-17.6,0,20.7,0,20.7H-185.8z"/>
	<path class="st0" d="M-185.8,415.9h-20.3c-0.8,0-1.5-0.7-1.5-1.5V389c0-0.8,0.7-1.5,1.5-1.5c0.8,0,1.5,0.7,1.5,1.5v4.6
		c0,19,18.1,19.2,18.9,19.2l0,0c0.8,0,1.5,0.7,1.5,1.5C-184.3,415.2-184.9,415.9-185.8,415.9C-185.7,415.9-185.7,415.9-185.8,415.9
		L-185.8,415.9C-185.7,415.9-185.7,415.9-185.8,415.9C-185.7,415.9-185.7,415.9-185.8,415.9C-185.7,415.9-185.7,415.9-185.8,415.9
		L-185.8,415.9L-185.8,415.9z M-204.6,412.9h7.6c-2.8-1.5-5.6-3.7-7.6-7.1V412.9z"/>
</g>
</svg>
