<?xml version="1.0" encoding="utf-8"?>
<!-- Generator: Adobe Illustrator 19.1.0, SVG Export Plug-In . SVG Version: 6.00 Build 0)  -->
<svg version="1.1" id="Layer_1" xmlns="http://www.w3.org/2000/svg" xmlns:xlink="http://www.w3.org/1999/xlink" x="0px" y="0px"
	 viewBox="0 0 223.7 64.7" style="enable-background:new 0 0 223.7 64.7;" xml:space="preserve">
<style type="text/css">
	.st0{fill:#62A87B;}
	.st1{fill:#3B5565;}
	.st2{fill:#63A97B;}
	.st3{fill:none;stroke:#3C5666;stroke-width:3;stroke-linecap:round;stroke-linejoin:round;stroke-miterlimit:10;}
	.st4{fill:#3C5666;}
</style>
<path class="st0" d="M175.5,9.2c-3.5,0-6.4,2.9-6.4,6.4c0,3.5,2.9,6.4,6.4,6.4c3.5,0,6.4-2.8,6.4-6.4C181.9,12.1,179,9.2,175.5,9.2z
	 M175.5,18.4c-1.6,0-2.8-1.3-2.8-2.8c0-1.6,1.3-2.8,2.8-2.8c1.5,0,2.8,1.3,2.8,2.8C178.3,17.1,177.1,18.4,175.5,18.4z"/>
<path class="st1" d="M161.9,64.7c-1.1,0-1.9-0.9-1.9-1.9v-5.6c-0.5,0.7-1.1,1.3-1.7,1.9c-3.6,3.6-8.4,5.6-13.4,5.6s-9.8-2-13.4-5.6
	c-3.6-3.6-5.6-8.4-5.6-13.4s2-9.9,5.6-13.4c3.6-3.6,8.4-5.6,13.4-5.6c1.1,0,1.9,0.9,1.9,1.9c0,1.1-0.9,1.9-1.9,1.9
	c-4,0-7.8,1.6-10.7,4.4c-2.9,2.9-4.4,6.7-4.4,10.7c0,4,1.6,7.8,4.4,10.7c2.9,2.9,6.7,4.4,10.7,4.4c4,0,7.8-1.6,10.7-4.4
	c2.9-2.9,4.4-6.7,4.4-10.7c0-1.1,0.9-1.9,1.9-1.9c1.1,0,1.9,0.9,1.9,1.9v17.1C163.8,63.8,162.9,64.7,161.9,64.7z"/>
<path class="st1" d="M101.6,64.7c-1,0-1.9-0.8-1.9-1.9V46.2c0-4.9,1.9-9.6,5.4-13c3.5-3.5,8.1-5.4,13-5.4c1,0,1.9,0.8,1.9,1.9
	c0,1-0.8,1.9-1.9,1.9c-3.9,0-7.6,1.5-10.4,4.3c-2.8,2.8-4.3,6.5-4.3,10.4v16.6C103.4,63.8,102.6,64.7,101.6,64.7z"/>
<path class="st1" d="M83.5,64.7c-1,0-1.8-0.8-1.8-1.8V1.8c0-1,0.8-1.8,1.8-1.8c1,0,1.8,0.8,1.8,1.8v61.1
	C85.3,63.9,84.5,64.7,83.5,64.7z"/>
<path class="st1" d="M188.8,64.7c-1,0-1.8-0.8-1.8-1.8V1.8c0-1,0.8-1.8,1.8-1.8c1,0,1.8,0.8,1.8,1.8v61.1
	C190.5,63.9,189.7,64.7,188.8,64.7z"/>
<path class="st1" d="M214.1,64.7l-12.6,0c-1,0-1.8-0.8-1.8-1.8c0-1,0.8-1.8,1.8-1.8c0,0,0,0,0,0l12.6,0c1.6,0,3.1-0.6,4.3-1.8
	c1.1-1.1,1.8-2.7,1.8-4.3c0-1.6-0.6-3.1-1.8-4.3c-1.1-1.1-2.7-1.8-4.3-1.8l-4.7,0c-2.6,0-5-1-6.8-2.8s-2.8-4.2-2.8-6.8
	c0-2.6,1-5,2.8-6.8c1.8-1.8,4.2-2.8,6.8-2.8l12.6,0c0,0,0,0,0,0c1,0,1.8,0.8,1.8,1.8s-0.8,1.8-1.8,1.8l-12.6,0
	c-1.6,0-3.2,0.6-4.3,1.8c-1.1,1.1-1.8,2.7-1.8,4.3c0,1.6,0.6,3.1,1.8,4.3c1.1,1.1,2.7,1.8,4.3,1.8l4.7,0c2.6,0,5,1,6.8,2.8
	c1.8,1.8,2.8,4.2,2.8,6.8s-1,5-2.8,6.8C219.1,63.7,216.6,64.7,214.1,64.7z"/>
<path class="st1" d="M96.3,17.3H83.5c-1,0-1.8-0.8-1.8-1.8s0.8-1.8,1.8-1.8h12.7c1,0,1.8,0.8,1.8,1.8S97.2,17.3,96.3,17.3z"/>
<path class="st1" d="M101.6,48.1c-1,0-1.9-0.8-1.9-1.9V29.7c0-1,0.8-1.9,1.9-1.9c1,0,1.9,0.8,1.9,1.9v16.5
	C103.4,47.2,102.6,48.1,101.6,48.1z"/>
<path class="st2" d="M118.2,17.3h-12.7c-1,0-1.8-0.8-1.8-1.8s0.8-1.8,1.8-1.8h12.7c1,0,1.8,0.8,1.8,1.8S119.2,17.3,118.2,17.3z"/>
<path class="st2" d="M140.3,17.3h-12.7c-1,0-1.8-0.8-1.8-1.8s0.8-1.8,1.8-1.8h12.7c1,0,1.8,0.8,1.8,1.8S141.3,17.3,140.3,17.3z"/>
<path class="st2" d="M162.5,17.3h-12.7c-1,0-1.8-0.8-1.8-1.8s0.8-1.8,1.8-1.8h12.7c1,0,1.8,0.8,1.8,1.8S163.4,17.3,162.5,17.3z"/>
<path class="st1" d="M175.5,43c-1,0-1.8-0.8-1.8-1.8V28.5c0-1,0.8-1.8,1.8-1.8c1,0,1.8,0.8,1.8,1.8v12.7
	C177.3,42.2,176.5,43,175.5,43z"/>
<path class="st1" d="M175.5,64.7c-1,0-1.8-0.8-1.8-1.8V50.2c0-1,0.8-1.8,1.8-1.8c1,0,1.8,0.8,1.8,1.8v12.7
	C177.3,63.9,176.5,64.7,175.5,64.7z"/>
<g id="Layer_14">
	<circle class="st0" cx="32.3" cy="32.3" r="32.3"/>
	<polyline class="st3" points="43.1,20.2 43.1,31.5 43.1,38.1 43.1,44.6 	"/>
	<line class="st3" x1="20.8" y1="20.2" x2="20.8" y2="29.1"/>
	<path class="st3" d="M43.1,44c0-4.1-3.3-7.4-7.4-7.4h-7.5c-4.1,0-7.4-3.3-7.4-7.4"/>
	<path class="st3" d="M14.3,21.8c0,3.6,2.9,6.5,6.5,6.5c3.6,0,6.5-2.9,6.5-6.5c0-0.4,0-0.8-0.1-1.3s-0.1-0.8-0.2-1.2
		c-0.1-0.4-0.2-0.8-0.3-1.2c-0.1-0.4-0.3-0.8-0.4-1.1c-0.2-0.4-0.3-0.7-0.5-1.1c-0.2-0.4-0.4-0.7-0.6-1c-0.2-0.3-0.5-0.6-0.7-1
		c-0.3-0.3-0.5-0.6-0.8-0.9c-0.3-0.3-0.6-0.5-0.9-0.8c-0.3-0.2-0.6-0.5-0.9-0.7c-0.3-0.2-0.7-0.4-1-0.6c-0.4,0.2-0.7,0.4-1,0.6
		c-0.3,0.2-0.6,0.5-1,0.7c-0.3,0.3-0.6,0.5-0.9,0.8c-0.3,0.3-0.5,0.6-0.8,0.9c-0.2,0.3-0.5,0.6-0.7,1c-0.2,0.3-0.4,0.7-0.6,1
		c-0.2,0.4-0.4,0.7-0.5,1.1c-0.2,0.4-0.3,0.7-0.4,1.1s-0.2,0.8-0.3,1.2c-0.1,0.4-0.1,0.8-0.2,1.2C14.4,20.9,14.3,21.3,14.3,21.8z"/>
	<path class="st3" d="M36.7,21.8c0,3.6,2.9,6.5,6.5,6.5s6.5-2.9,6.5-6.5c0-0.4,0-0.8-0.1-1.3c0-0.4-0.1-0.8-0.2-1.2
		c-0.1-0.4-0.2-0.8-0.3-1.2c-0.1-0.4-0.3-0.8-0.4-1.1c-0.2-0.4-0.3-0.7-0.5-1.1c-0.2-0.4-0.4-0.7-0.6-1c-0.2-0.3-0.5-0.6-0.7-1
		c-0.3-0.3-0.5-0.6-0.8-0.9c-0.3-0.3-0.6-0.5-0.9-0.8c-0.3-0.2-0.6-0.5-1-0.7c-0.3-0.2-0.7-0.4-1-0.6c-0.4,0.2-0.7,0.4-1,0.6
		c-0.3,0.2-0.6,0.5-0.9,0.7c-0.3,0.3-0.6,0.5-0.9,0.8c-0.3,0.3-0.5,0.6-0.8,0.9c-0.3,0.3-0.5,0.6-0.7,1c-0.2,0.3-0.4,0.7-0.6,1
		c-0.2,0.4-0.4,0.7-0.5,1.1c-0.2,0.4-0.3,0.7-0.4,1.1s-0.2,0.8-0.3,1.2c-0.1,0.4-0.1,0.8-0.2,1.2C36.7,20.9,36.7,21.3,36.7,21.8z"/>
	<path class="st4" d="M43.1,43.4c-2.9,0-5.2,2.3-5.2,5.2s2.3,5.2,5.2,5.2c2.9,0,5.2-2.3,5.2-5.2S46,43.4,43.1,43.4z M43.1,50.9
		c-1.3,0-2.3-1-2.3-2.3c0-1.3,1-2.3,2.3-2.3c1.3,0,2.3,1,2.3,2.3C45.4,49.9,44.4,50.9,43.1,50.9z"/>
</g>
</svg>
