<?xml version="1.0" encoding="utf-8"?>
<!-- Generator: Adobe Illustrator 19.2.1, SVG Export Plug-In . SVG Version: 6.00 Build 0)  -->
<svg version="1.1" id="Layer_1" xmlns="http://www.w3.org/2000/svg" xmlns:xlink="http://www.w3.org/1999/xlink" x="0px" y="0px"
	 viewBox="0 0 157.2 126.8" style="enable-background:new 0 0 157.2 126.8;" xml:space="preserve">
<style type="text/css">
	.st0{fill:#FFFFFF;}
	.st1{fill:#3B5666;}
	.st2{fill:#9CAAB2;}
</style>
<g>
	<g>
		<rect x="2.5" y="2.6" class="st0" width="152.2" height="121.7"/>
		<path class="st1" d="M157.2,126.8H0V0.1h157.2V126.8z M5,121.8h147.2V5.1H5V121.8z"/>
	</g>
	<g>
		<path class="st1" d="M48.9,55.3c-5.9,0-10.7-4.8-10.7-10.7S43,33.9,48.9,33.9s10.7,4.8,10.7,10.7S54.8,55.3,48.9,55.3z M48.9,38.9
			c-3.1,0-5.7,2.6-5.7,5.7s2.6,5.7,5.7,5.7s5.7-2.6,5.7-5.7S52,38.9,48.9,38.9z"/>
		<g>
			<rect x="40.1" y="25.3" transform="matrix(0.9223 -0.3864 0.3864 0.9223 -8.0167 18.717)" class="st1" width="5" height="8"/>
			<rect x="51.2" y="26.8" transform="matrix(0.3864 -0.9223 0.9223 0.3864 6.8787 68.9393)" class="st1" width="8" height="5"/>
			<rect x="60.2" y="35.8" transform="matrix(0.9223 -0.3864 0.3864 0.9223 -9.793 27.7747)" class="st1" width="8" height="5"/>
			<rect x="61.7" y="46.9" transform="matrix(0.3864 -0.9223 0.9223 0.3864 -7.5996 90.4766)" class="st1" width="5" height="8"/>
			<rect x="52.8" y="55.9" transform="matrix(0.9224 -0.3863 0.3863 0.9224 -18.8515 25.995)" class="st1" width="5" height="8"/>
			<rect x="38.5" y="57.4" transform="matrix(0.3864 -0.9223 0.9223 0.3864 -29.14 75.9965)" class="st1" width="8" height="5"/>
			<rect x="29.6" y="48.5" transform="matrix(0.9223 -0.3864 0.3864 0.9223 -17.076 16.9381)" class="st1" width="8" height="5"/>
			<rect x="31.1" y="34.2" transform="matrix(0.3863 -0.9224 0.9224 0.3863 -14.6614 54.4631)" class="st1" width="5" height="8"/>
		</g>
	</g>
	<g>
		<polygon class="st2" points="109.9,45.6 139.9,80.2 139.9,109.4 109.9,109.3 54.7,109.3 82.3,77.4 		"/>
		<path class="st1" d="M142.4,111.9l-32.5-0.1H49.2l31.2-36l29.5-34l32.5,37.5V111.9z M60.2,106.8h49.7l27.5,0.1V81.1l-27.5-31.7
			L84.2,79L60.2,106.8z"/>
	</g>
	<g>
		<polygon class="st2" points="49,72.9 80.6,109.4 17.3,109.4 		"/>
		<path class="st1" d="M86,111.9H11.8L49,69.1L86,111.9z M22.7,106.9h52.3L48.9,76.7L22.7,106.9z"/>
	</g>
	<path class="st1" d="M139.7,19.8c-0.6,0-1.3-0.2-1.8-0.7c-1-1-1-2.6,0-3.5l14.8-14.8c1-1,2.6-1,3.5,0c1,1,1,2.6,0,3.5l-14.8,14.8
		C141,19.6,140.3,19.8,139.7,19.8z"/>
	<path class="st1" d="M17.1,19.8c-0.6,0-1.3-0.2-1.8-0.7L0.7,4.3c-1-1-1-2.6,0-3.5s2.6-1,3.5,0l14.6,14.8c1,1,1,2.6,0,3.5
		C18.4,19.6,17.7,19.8,17.1,19.8z"/>
	<path class="st1" d="M154.5,126.8c-0.6,0-1.3-0.2-1.8-0.7l-14.8-14.8c-1-1-1-2.6,0-3.5s2.6-1,3.5,0l14.8,14.8c1,1,1,2.6,0,3.5
		C155.8,126.6,155.1,126.8,154.5,126.8z"/>
	<path class="st1" d="M2.5,126.7c-0.6,0-1.3-0.2-1.8-0.7c-1-1-1-2.6,0-3.5l14.6-14.7c1-1,2.6-1,3.5,0c1,1,1,2.6,0,3.5L4.3,126
		C3.8,126.5,3.1,126.7,2.5,126.7z"/>
	<path class="st1" d="M142.4,111.9H14.8V14.8h127.6V111.9z M19.8,106.9h117.6V19.8H19.8V106.9z"/>
</g>
</svg>
