<?xml version="1.0" encoding="utf-8"?>
<!-- Generator: Adobe Illustrator 19.2.1, SVG Export Plug-In . SVG Version: 6.00 Build 0)  -->
<svg version="1.1" id="Layer_1" xmlns="http://www.w3.org/2000/svg" xmlns:xlink="http://www.w3.org/1999/xlink" x="0px" y="0px"
	 viewBox="0 0 129.1 192.8" style="enable-background:new 0 0 129.1 192.8;" xml:space="preserve">
<style type="text/css">
	.st0{fill:#9CAAB2;}
	.st1{fill:#FFFFFF;}
	.st2{fill:#3B5666;}
	.st3{fill:#63A97B;}
</style>
<g>
	<path class="st0" d="M115.2,137c0,29.4-23.8,53.2-53.2,53.2S8.8,166.4,8.8,137H115.2z"/>
	<path class="st1" d="M30.2,137c0,23.5,19,42.5,42.5,42.5s42.5-19,42.5-42.5"/>
	<path class="st2" d="M62,192.7c-30.7,0-55.7-25-55.7-55.7v-2.5h111.4v2.5C117.7,167.7,92.7,192.7,62,192.7z M11.4,139.5
		c1.3,26.8,23.5,48.2,50.6,48.2s49.3-21.4,50.6-48.2H11.4z"/>
	<g>
		<g>
			<path class="st3" d="M108.4,24.1c0,0-25.1,68.3-45.3,112.2h9.7c9.6-15.3,20.1-30,28.8-45.8c4.4-7.9,7-16.1,9-24.9
				C113.7,51.9,115.1,36.8,108.4,24.1z"/>
			<path class="st2" d="M72.8,138.8h-9.7c-0.9,0-1.6-0.4-2.1-1.2s-0.5-1.6-0.2-2.4c19.9-43.3,45-111.3,45.2-112
				c0.3-0.9,1.2-1.6,2.2-1.6c1-0.1,1.9,0.5,2.4,1.3c7.7,14.5,5.1,31.6,2.4,43.2c-2.4,10.5-5.2,18.3-9.3,25.6
				c-5.8,10.5-12.5,20.7-18.9,30.5c-3.3,5-6.7,10.2-9.9,15.4C74.5,138.4,73.7,138.8,72.8,138.8z M67,133.8h4.4
				c3-4.8,6.2-9.6,9.3-14.3c6.4-9.8,13-19.9,18.7-30.2c3.8-6.8,6.5-14.3,8.8-24.2c2.1-9.3,4.2-22.4,0.4-34.2
				C102.2,47.9,83.2,98,67,133.8z"/>
		</g>
		<g>
			<path class="st3" d="M62,136.2c-1-9.7-1.9-19.4-2.6-29.1c-1-13.4-2.9-27.9-0.8-41.2c1.9-12,7.3-25.2,13.7-35.5
				c6.1-9.8,10-15.8,22.4-27.8c0,0-19.9,60.3-21.9,133.7L62,136.2z"/>
			<path class="st2" d="M72.8,138.8C72.8,138.8,72.8,138.8,72.8,138.8L62,138.7c-1.3,0-2.3-1-2.5-2.2c-1.1-10.9-2-20.4-2.6-29.2
				c-0.2-2.3-0.4-4.6-0.6-6.9c-1-11.6-2-23.5-0.2-34.8c1.8-11.6,7.1-25.2,14-36.4c6.2-10,10.4-16.2,22.8-28.3
				C93.8,0,95.1-0.1,96,0.5c1,0.6,1.4,1.8,1,2.9c-0.2,0.6-19.8,60.8-21.8,133C75.3,137.7,74.2,138.8,72.8,138.8z M64.3,133.7
				l6.1,0.1C72.2,78.9,83.9,31.2,89.5,11.5c-6.9,7.4-10.2,12.5-15,20.3c-6.6,10.7-11.6,23.6-13.4,34.6c-1.7,10.7-0.7,22.4,0.3,33.6
				c0.2,2.4,0.4,4.7,0.6,7C62.5,115,63.3,123.8,64.3,133.7z"/>
		</g>
		<g>
			<path class="st3" d="M76.5,136.2c0,0,27.5-25.1,49.9-57.5c0,0,2.4,22.4-11,37.3s-30.7,20.1-30.7,20.1L76.5,136.2L76.5,136.2z"/>
			<path class="st2" d="M76.5,138.7c-0.3,0-0.7-0.1-1-0.2c-0.9-0.4-1.5-1.3-1.5-2.3v-0.1c0-0.9,0.5-1.8,1.3-2.2
				c3.8-3.5,28.7-27.2,49-56.6c0.6-0.9,1.7-1.3,2.7-1c1,0.3,1.8,1.1,1.9,2.2c0.1,1,2.4,23.7-11.6,39.2
				c-13.7,15.2-31.1,20.6-31.8,20.8c-0.2,0.1-0.5,0.1-0.7,0.1h-7.5C77,138.7,76.7,138.7,76.5,138.7z M82.8,133.6h1.5
				c2.4-0.8,17.5-6.2,29.2-19.3c7.9-8.7,9.9-20.4,10.4-27.9C108.2,108,90.9,125.7,82.8,133.6z"/>
		</g>
		<g>
			<path class="st3" d="M53.3,136.2c0,0-4.1-33.4-14.3-54.4S2.5,56.1,2.5,56.1s23.3,26.4,40.2,80.1H53.3z"/>
			<path class="st2" d="M53.3,138.7H42.7c-1.1,0-2.1-0.7-2.4-1.7C23.8,84.4,0.9,58,0.6,57.8c-0.7-0.8-0.8-2-0.3-2.9
				c0.5-0.9,1.6-1.4,2.6-1.2c1.1,0.2,27.7,5.2,38.3,27.1c10.3,21.1,14.4,53.8,14.5,55.2c0.1,0.7-0.1,1.4-0.6,2
				C54.7,138.4,54,138.7,53.3,138.7z M44.5,133.7h5.9c-1.2-8.4-5.5-33.9-13.7-50.8c-6.3-13-19.4-19.5-27.6-22.3
				C16.8,71.1,32.2,95.2,44.5,133.7z"/>
		</g>
	</g>
</g>
</svg>
