<?xml version="1.0" encoding="utf-8"?>
<!-- Generator: Adobe Illustrator 19.2.1, SVG Export Plug-In . SVG Version: 6.00 Build 0)  -->
<svg version="1.1" id="Layer_1" xmlns="http://www.w3.org/2000/svg" xmlns:xlink="http://www.w3.org/1999/xlink" x="0px" y="0px"
	 viewBox="0 0 113.7 127.7" style="enable-background:new 0 0 113.7 127.7;" xml:space="preserve">
<style type="text/css">
	.st0{fill:#FFFFFF;}
	.st1{fill:#3A5566;}
	.st2{fill:none;stroke:#3A5566;stroke-width:5;stroke-miterlimit:10;}
</style>
<g>
	<g>
		<path class="st0" d="M99.1,82.4c3.3,0,6.4,1.4,8.5,3.5c2.2,2.2,3.5,5.2,3.5,8.5V113l0,0v12.1h-12"/>
		<path class="st1" d="M113.6,127.6H99.1v-5h9.5V94.4c0-2.6-1-4.9-2.8-6.7c-1.7-1.7-4.2-2.8-6.7-2.8v-5c3.8,0,7.6,1.5,10.3,4.2
			c2.7,2.7,4.2,6.4,4.2,10.3V127.6z"/>
	</g>
	<g>
		<path class="st0" d="M14.6,82.4c-3.3,0-6.4,1.4-8.5,3.5c-2.2,2.2-3.5,5.2-3.5,8.5V113l0,0v12.1h12.1"/>
		<path class="st1" d="M14.7,127.6H0.1V94.4c0-3.9,1.5-7.5,4.2-10.3c2.7-2.7,6.4-4.2,10.3-4.2v5c-2.5,0-5,1-6.7,2.8
			c-1.8,1.8-2.8,4.2-2.8,6.7v28.2h9.6V127.6z"/>
	</g>
	<g>
		<path class="st0" d="M99.1,125.2H56.8H14.6V42.7c0-3.3,1.4-6.4,3.5-8.5c2.2-2.2,5.2-3.5,8.5-3.5h30.1L87,30.5
			c3.3,0,6.4,1.4,8.5,3.5c2.2,2.2,3.5,5.2,3.5,8.5L99.1,125.2L99.1,125.2z"/>
		<path class="st1" d="M99.1,127.7h-87v-85c0-3.8,1.5-7.6,4.2-10.3c2.7-2.7,6.4-4.2,10.3-4.2h30.1L87,28c3.9,0,7.6,1.5,10.3,4.2
			c2.7,2.7,4.2,6.4,4.2,10.3v82.7h-2.4V127.7z M17.1,122.7h79.4V42.5c0-2.6-1-4.9-2.8-6.7C92,34,89.5,33,87,33l-30.3,0.2H26.6
			c-2.6,0-4.9,1-6.7,2.8c-1.7,1.7-2.8,4.2-2.8,6.7V122.7z"/>
	</g>
	<path class="st2" d="M75.9,76.3"/>
	<path class="st2" d="M99.1,122.7"/>
	<g>
		<path class="st0" d="M99.1,18.4c0,3.3-1.4,6.4-3.5,8.5c-2.2,2.2-5.2,3.5-8.5,3.5H57l-30.2,0.1c-3.3,0-6.4-1.4-8.5-3.5
			c-2.2-2.2-3.5-5.2-3.5-8.5v-3.8v-0.1c0-3.3,1.4-6.4,3.5-8.5c2.2-2.2,5.2-3.5,8.5-3.5h30.1L87,2.5c3.3,0,6.4,1.4,8.5,3.5
			c2.2,2.2,3.5,5.2,3.5,8.5L99.1,18.4L99.1,18.4z"/>
		<path class="st1" d="M26.8,33c-3.8,0-7.6-1.5-10.3-4.2c-2.7-2.7-4.2-6.4-4.2-10.3v-3.9c0-3.8,1.5-7.6,4.2-10.3
			c2.7-2.7,6.4-4.2,10.3-4.2h30.1L87,0c3.8,0,7.6,1.5,10.3,4.2c2.7,2.7,4.2,6.4,4.2,10.3v1.4l0.1,2.5c0,3.8-1.5,7.6-4.2,10.3
			c-2.7,2.7-6.4,4.2-10.3,4.2H57L26.8,33z M87,5L56.9,5.1H26.8c-2.6,0-4.9,1-6.7,2.8c-1.7,1.7-2.8,4.3-2.8,6.7v3.9
			c0,2.6,1,4.9,2.8,6.7c1.7,1.7,4.2,2.8,6.7,2.8L57,27.9h30.1c2.6,0,4.9-1,6.7-2.8c1.4-1.4,2.4-3.4,2.7-5.4v-5.2
			c0-2.6-1-4.9-2.8-6.7C92,6,89.5,5,87,5z"/>
	</g>
	<path class="st2" d="M14.6,123.2"/>
	<rect x="35.6" y="2.5" class="st1" width="5" height="28"/>
	<rect x="73.2" y="2.5" class="st1" width="5" height="28"/>
	<path class="st1" d="M56.9,84.9c-0.3,0-0.5,0-0.8-0.1L14,71.4c-1.3-0.4-2-1.8-1.6-3.1c0.4-1.3,1.8-2,3.1-1.6l41.3,13.2l41.3-13.2
		c1.3-0.4,2.7,0.3,3.1,1.6s-0.3,2.7-1.6,3.1L57.7,84.8C57.4,84.9,57.2,84.9,56.9,84.9z"/>
	<g>
		<path class="st0" d="M62.3,82.4v33.1c0,3-2.4,5.5-5.5,5.5l0,0c-3,0-5.5-2.4-5.5-5.5V82.4H62.3z"/>
		<path class="st1" d="M56.8,123.5c-4.4,0-8-3.6-8-8V79.9h16v35.6C64.8,119.9,61.2,123.5,56.8,123.5z M53.8,84.9v30.6
			c0,1.7,1.3,3,3,3c1.7,0,3-1.3,3-3V84.9H53.8z"/>
	</g>
	<g>
		<rect x="45.2" y="82.4" class="st0" width="23.4" height="12.7"/>
		<path class="st1" d="M71.1,97.6H42.7V79.9h28.4V97.6z M47.7,92.6h18.4v-7.7H47.7V92.6z"/>
	</g>
</g>
</svg>
