<?xml version="1.0" encoding="utf-8"?>
<!-- Generator: Adobe Illustrator 19.2.1, SVG Export Plug-In . SVG Version: 6.00 Build 0)  -->
<svg version="1.1" id="Layer_1" xmlns="http://www.w3.org/2000/svg" xmlns:xlink="http://www.w3.org/1999/xlink" x="0px" y="0px"
	 viewBox="0 0 643.6 33.4" style="enable-background:new 0 0 643.6 33.4;" xml:space="preserve">
<style type="text/css">
	.st0{fill:#FFFFFF;}
	.st1{fill:#3B5666;}
</style>
<g>
	<polygon class="st0" points="42.6,30.9 14.1,30.9 3.6,2.5 53.1,2.5 	"/>
	<path class="st1" d="M44.3,33.4h-32L0,0h56.7L44.3,33.4z M15.8,28.4h25L49.5,5H7.2L15.8,28.4z"/>
</g>
<g>
	<polygon class="st0" points="629.5,30.9 601,30.9 590.5,2.5 640,2.5 	"/>
	<path class="st1" d="M631.2,33.4h-32L586.9,0h56.7L631.2,33.4z M602.7,28.4h25L636.4,5h-42.3L602.7,28.4z"/>
</g>
<polygon class="st1" points="53.1,3 3.6,3 9.2,17.7 47.4,17.7 "/>
<polygon class="st1" points="640,2.5 590.5,2.5 596.2,17.2 634.4,17.2 "/>
</svg>
