<?xml version="1.0" encoding="utf-8"?>
<!-- Generator: Adobe Illustrator 19.2.1, SVG Export Plug-In . SVG Version: 6.00 Build 0)  -->
<svg version="1.1" id="Layer_1" xmlns="http://www.w3.org/2000/svg" xmlns:xlink="http://www.w3.org/1999/xlink" x="0px" y="0px"
	 viewBox="0 0 50.2 179.6" style="enable-background:new 0 0 50.2 179.6;" xml:space="preserve">
<style type="text/css">
	.st0{fill:#FFFFFF;}
	.st1{fill:#3A5566;}
</style>
<g>
	
		<rect x="32.4" y="81.9" transform="matrix(2.162454e-11 -1 1 2.162454e-11 -49.9469 129.6157)" class="st0" width="14.8" height="15.7"/>
	<path class="st1" d="M50.2,99.7H29.5V79.9h20.7V99.7z M34.5,94.7h10.7v-9.8H34.5V94.7z"/>
</g>
<g>
	<path class="st0" d="M17.3,177.1L17.3,177.1c-8.1,0-14.8-6.7-14.8-14.8v-145c0-8.1,6.7-14.8,14.8-14.8l0,0
		c8.1,0,14.8,6.7,14.8,14.8v145C32.1,170.4,25.4,177.1,17.3,177.1z"/>
	<path class="st1" d="M17.3,179.6c-9.5,0-17.3-7.8-17.3-17.3v-145C0,7.8,7.8,0,17.3,0s17.3,7.8,17.3,17.3v145
		C34.6,171.8,26.8,179.6,17.3,179.6z M17.3,5C10.5,5,5,10.5,5,17.3v145c0,6.8,5.5,12.3,12.3,12.3s12.3-5.5,12.3-12.3v-145
		C29.6,10.5,24.1,5,17.3,5z"/>
</g>
<path class="st1" d="M17.3,2.3L17.3,2.3C9.2,2.3,2.5,8.9,2.5,17.1h29.6C32.1,8.9,25.4,2.3,17.3,2.3"/>
<path class="st1" d="M17.3,177.6L17.3,177.6c-8.1,0-14.8-6.7-14.8-14.8h29.6C32.1,170.9,25.4,177.6,17.3,177.6"/>
</svg>
