<?xml version="1.0" encoding="utf-8"?>
<!-- Generator: Adobe Illustrator 19.2.1, SVG Export Plug-In . SVG Version: 6.00 Build 0)  -->
<svg version="1.1" id="Layer_1" xmlns="http://www.w3.org/2000/svg" xmlns:xlink="http://www.w3.org/1999/xlink" x="0px" y="0px"
	 viewBox="0 0 113.9 127.8" style="enable-background:new 0 0 113.9 127.8;" xml:space="preserve">
<style type="text/css">
	.st0{fill:#FFFFFF;}
	.st1{fill:#3A5566;}
</style>
<g>
	<g>
		<path class="st0" d="M111.4,57c0-22.5-18.2-40.7-40.7-40.7H43.2C20.7,16.3,2.5,34.5,2.5,57v56.1c0,3.3,1.4,6.4,3.5,8.6
			c2.2,2.2,5.2,3.5,8.6,3.5H57h42.4c3.3,0,6.4-1.4,8.6-3.5c2.2-2.2,3.5-5.2,3.5-8.6V57z"/>
		<path class="st1" d="M99.3,127.8H14.6c-3.9,0-7.6-1.5-10.3-4.3C1.5,120.7,0,117,0,113.1V57c0-23.8,19.4-43.2,43.2-43.2h27.5
			c23.8,0,43.2,19.4,43.2,43.2v56.1c0,3.9-1.5,7.6-4.3,10.3C106.9,126.2,103.2,127.8,99.3,127.8z M43.2,18.8C22.1,18.8,5,36,5,57
			v56.1c0,2.6,1,5,2.8,6.8c1.8,1.8,4.2,2.8,6.8,2.8h84.7c2.6,0,5-1,6.8-2.8c1.8-1.8,2.8-4.2,2.8-6.8V57c0-21.1-17.1-38.2-38.2-38.2
			H43.2z"/>
	</g>
	<path class="st1" d="M73.3,16.3h-5C68.3,10.1,63.2,5,57,5c-6.2,0-11.3,5.1-11.3,11.3h-5C40.7,7.3,48,0,57,0
		C66,0,73.3,7.3,73.3,16.3z"/>
	<g>
		<path class="st0" d="M99.7,103.2c0-6.7-5.4-12.1-12.1-12.1H26.3c-6.7,0-12.1,5.4-12.1,12.1v9.9c0,6.7,5.4,12.1,12.1,12.1h61.3
			c6.7,0,12.1-5.4,12.1-12.1V103.2z"/>
		<path class="st1" d="M87.6,127.8H26.3c-8.1,0-14.6-6.6-14.6-14.6v-9.9c0-8.1,6.6-14.6,14.6-14.6h61.3c8.1,0,14.6,6.6,14.6,14.6
			v9.9C102.2,121.2,95.7,127.8,87.6,127.8z M26.3,93.6c-5.3,0-9.6,4.3-9.6,9.6v9.9c0,5.3,4.3,9.6,9.6,9.6h61.3
			c5.3,0,9.6-4.3,9.6-9.6v-9.9c0-5.3-4.3-9.6-9.6-9.6H26.3z"/>
	</g>
	<rect x="14.2" y="100.7" class="st1" width="85.5" height="5"/>
	<rect x="86.9" y="103.4" class="st1" width="5" height="9.6"/>
</g>
</svg>
