<?xml version="1.0" encoding="utf-8"?>
<!-- Generator: Adobe Illustrator 19.2.1, SVG Export Plug-In . SVG Version: 6.00 Build 0)  -->
<svg version="1.1" id="Layer_1" xmlns="http://www.w3.org/2000/svg" xmlns:xlink="http://www.w3.org/1999/xlink" x="0px" y="0px"
	 viewBox="0 0 96.3 119.2" style="enable-background:new 0 0 96.3 119.2;" xml:space="preserve">
<style type="text/css">
	.st0{fill:#FFFFFF;}
	.st1{fill:#3B5666;}
</style>
<g>
	<g>
		<rect x="2.5" y="2.5" class="st0" width="91.3" height="114.1"/>
		<path class="st1" d="M96.3,119.1H0V0h96.3V119.1z M5,114.1h86.3V5H5V114.1z"/>
	</g>
	<g>
		<path class="st1" d="M47.5,104.1c-1.4,0-2.5-1.1-2.5-2.5v-50c0-1.4,1.1-2.5,2.5-2.5s2.5,1.1,2.5,2.5v50
			C50,103,48.9,104.1,47.5,104.1z"/>
		<path class="st1" d="M37.3,60.9c-1,0-1.9-0.5-2.3-1.5c-0.6-1.3,0-2.7,1.3-3.3c1.8-0.8,3.3-1.8,4.6-3.1c1.4-1.4,2.4-2.9,3-4.5
			c0.7-1.9,1.1-3.7,1.1-5.6c0-1.4,1.1-2.5,2.5-2.5S50,41.6,50,43c0,2.5-0.5,5-1.5,7.4c-0.9,2.2-2.3,4.3-4.2,6.1
			c-1.7,1.7-3.7,3.1-6,4.1C38,60.8,37.6,60.9,37.3,60.9z"/>
		<path class="st1" d="M57.7,60.9c-0.3,0-0.7-0.1-1-0.2c-2.3-1-4.4-2.4-6-4.1c-1.9-1.9-3.3-4-4.2-6.1c-1-2.5-1.5-5-1.5-7.4
			c0-1.4,1.1-2.5,2.5-2.5S50,41.6,50,43c0,1.8,0.4,3.7,1.1,5.6c0.6,1.5,1.7,3.1,3,4.5c1.3,1.3,2.8,2.3,4.6,3.1
			c1.3,0.6,1.8,2,1.3,3.3C59.6,60.4,58.7,60.9,57.7,60.9z"/>
		<path class="st1" d="M36.1,72.3c-1,0-1.9-0.6-2.3-1.6c-0.5-1.3,0.1-2.7,1.4-3.3c1.8-0.7,3.6-1.9,5.1-3.5c1.5-1.5,2.7-3.3,3.5-5.1
			c0.9-2.1,1.3-4.1,1.3-6.4c0-1.4,1.1-2.5,2.5-2.5s2.5,1.1,2.5,2.5c0,2.9-0.6,5.7-1.7,8.3c-1,2.4-2.5,4.7-4.5,6.7
			c-2,2-4.3,3.5-6.7,4.5C36.7,72.2,36.4,72.3,36.1,72.3z"/>
		<path class="st1" d="M58.9,72.3c-0.3,0-0.6-0.1-0.9-0.2c-2.4-1-4.7-2.5-6.7-4.5c-2-2-3.5-4.3-4.5-6.7c-1.1-2.6-1.7-5.3-1.7-8.2
			c0-1.4,1.1-2.5,2.5-2.5s2.5,1.1,2.5,2.5c0,2.2,0.4,4.3,1.3,6.3c0.8,1.9,2,3.6,3.5,5.1c1.5,1.5,3.3,2.7,5.1,3.5
			c1.3,0.5,1.9,2,1.4,3.3C60.8,71.7,59.9,72.3,58.9,72.3z"/>
		<path class="st1" d="M34.9,84.5c-1,0-1.9-0.6-2.3-1.6c-0.5-1.3,0.1-2.7,1.4-3.2c2.1-0.8,4.1-2.1,5.8-3.8c1.8-1.9,3.1-3.8,3.8-5.8
			c0.9-2.4,1.4-4.8,1.4-7.2c0-1.4,1.1-2.5,2.5-2.5s2.5,1.1,2.5,2.5c0,3-0.6,6.1-1.8,9c-1,2.5-2.7,5-4.9,7.4c-2.2,2.2-4.7,3.9-7.5,5
			C35.5,84.4,35.2,84.5,34.9,84.5z"/>
		<path class="st1" d="M60.1,84.5c-0.3,0-0.6-0.1-0.9-0.2c-2.7-1.1-5.3-2.8-7.4-5c-2.3-2.4-3.9-4.9-5-7.4c-1.2-3-1.8-6-1.8-9
			c0-1.4,1.1-2.5,2.5-2.5s2.5,1.1,2.5,2.5c0,2.4,0.5,4.8,1.4,7.2c0.8,2,2.1,3.9,3.9,5.8c1.7,1.7,3.6,3,5.7,3.8
			c1.3,0.5,1.9,2,1.4,3.2C62,83.9,61.1,84.5,60.1,84.5z"/>
	</g>
	<path class="st1" d="M80.6,104.3H14.8V14.8h65.8V104.3z M19.8,99.3h55.8V19.8H19.8V99.3z"/>
	<path class="st1" d="M78,19.8c-0.6,0-1.3-0.2-1.8-0.7c-1-1-1-2.6,0-3.5L91,0.7c1-1,2.6-1,3.5,0c1,1,1,2.6,0,3.5L79.8,19.1
		C79.3,19.6,78.6,19.8,78,19.8z"/>
	<path class="st1" d="M17.1,19.8c-0.6,0-1.3-0.2-1.8-0.7L0.7,4.3c-1-1-1-2.6,0-3.5c1-1,2.6-1,3.5,0l14.6,14.8c1,1,1,2.6,0,3.5
		C18.4,19.6,17.7,19.8,17.1,19.8z"/>
	<path class="st1" d="M92.8,119.2c-0.6,0-1.3-0.2-1.8-0.7l-14.8-14.8c-1-1-1-2.6,0-3.5s2.6-1,3.5,0l14.8,14.8c1,1,1,2.6,0,3.5
		C94.1,119,93.4,119.2,92.8,119.2z"/>
	<path class="st1" d="M2.5,119.1c-0.6,0-1.3-0.2-1.8-0.7c-1-1-1-2.6,0-3.5l14.6-14.7c1-1,2.6-1,3.5,0s1,2.6,0,3.5L4.3,118.4
		C3.8,118.9,3.1,119.1,2.5,119.1z"/>
</g>
</svg>
