<?xml version="1.0" encoding="utf-8"?>
<!-- Generator: Adobe Illustrator 19.2.1, SVG Export Plug-In . SVG Version: 6.00 Build 0)  -->
<svg version="1.1" id="Layer_1" xmlns="http://www.w3.org/2000/svg" xmlns:xlink="http://www.w3.org/1999/xlink" x="0px" y="0px"
	 viewBox="0 0 1242.4 240.3" style="enable-background:new 0 0 1242.4 240.3;" xml:space="preserve">
<style type="text/css">
	.st0{fill:#9BA9B1;}
	.st1{fill:#3A5566;}
	.st2{fill:#FFFFFF;}
	.st3{fill:#63A87B;}
</style>
<g>
	<rect x="2.5" y="179.2" class="st0" width="1237.4" height="61.1"/>
	<path class="st1" d="M299.4,181.7H2.5c-1.4,0-2.5-1.1-2.5-2.5s1.1-2.5,2.5-2.5h296.9c1.4,0,2.5,1.1,2.5,2.5
		S300.8,181.7,299.4,181.7z"/>
	<path class="st1" d="M885.3,181.7H363.8c-1.4,0-2.5-1.1-2.5-2.5s1.1-2.5,2.5-2.5h521.5c1.4,0,2.5,1.1,2.5,2.5
		S886.7,181.7,885.3,181.7z"/>
	<path class="st1" d="M1017,181.7h-65.6c-1.4,0-2.5-1.1-2.5-2.5s1.1-2.5,2.5-2.5h65.6c1.4,0,2.5,1.1,2.5,2.5
		S1018.4,181.7,1017,181.7z"/>
	<path class="st1" d="M1123.5,181.7c-1.4,0-2.5-1.1-2.5-2.5s1.1-2.5,2.5-2.5l116.4,0c1.4,0,2.5,1.1,2.5,2.5s-1.1,2.5-2.5,2.5
		L1123.5,181.7z"/>
</g>
<g>
	<path class="st0" d="M1122.9,137c0,29.4-23.8,53.2-53.2,53.2c-29.4,0-53.2-23.8-53.2-53.2H1122.9z"/>
	<path class="st2" d="M1037.9,137c0,23.5,19,42.5,42.5,42.5c23.5,0,42.5-19,42.5-42.5"/>
	<path class="st1" d="M1069.6,192.8c-30.7,0-55.7-25-55.7-55.7v-2.5h111.5v2.5C1125.4,167.8,1100.4,192.8,1069.6,192.8z
		 M1018.9,139.5c1.3,26.8,23.5,48.2,50.7,48.2s49.4-21.4,50.7-48.2H1018.9z"/>
	<g>
		<g>
			<path class="st3" d="M1116.1,24.1c0,0-25.1,68.3-45.3,112.2h9.7c9.6-15.3,20.1-30,28.8-45.8c4.4-7.9,7-16.1,9-24.9
				C1121.4,51.9,1122.8,36.8,1116.1,24.1z"/>
			<path class="st1" d="M1070.8,138.7c-0.9,0-1.6-0.4-2.1-1.2c-0.5-0.7-0.5-1.6-0.2-2.4c19.9-43.3,45-111.3,45.3-112
				c0.3-0.9,1.2-1.6,2.2-1.6c1-0.1,1.9,0.5,2.4,1.3c7.6,14.7,5,31.6,2.4,43.1c-2.4,10.4-5.2,18.3-9.3,25.6
				c-5.8,10.4-12.4,20.5-18.8,30.3c-3.3,5.1-6.8,10.4-10.1,15.6c-0.5,0.7-1.3,1.2-2.1,1.2L1070.8,138.7z M1116.3,30.8
				c-6.4,17-25.4,67.1-41.6,102.9l4.4,0c3.1-4.9,6.3-9.8,9.4-14.5c6.3-9.7,12.9-19.7,18.6-30c3.8-6.9,6.5-14.4,8.8-24.3
				C1119.1,50.9,1119.2,39.9,1116.3,30.8z"/>
		</g>
		<g>
			<path class="st3" d="M1069.7,136.2c-1-9.7-1.9-19.4-2.6-29.1c-1-13.4-2.9-27.9-0.8-41.2c1.9-12,7.3-25.2,13.7-35.5
				c6.1-9.8,10-15.8,22.4-27.8c0,0-19.9,60.3-21.9,133.7L1069.7,136.2z"/>
			<path class="st1" d="M1080.5,138.7L1080.5,138.7l-10.8,0c-1.3,0-2.3-1-2.5-2.2c-1-9.2-1.8-18.7-2.6-29.2
				c-0.2-2.3-0.4-4.6-0.6-6.9c-1-11.5-2-23.5-0.2-34.8c1.8-11.6,7.1-25.2,14.1-36.5c6.2-9.9,10.3-16.1,22.8-28.3
				c0.8-0.8,2.1-0.9,3.1-0.3c1,0.6,1.4,1.8,1,2.9c-0.2,0.6-19.8,60.8-21.7,133C1083,137.6,1081.8,138.7,1080.5,138.7z M1071.9,133.7
				l6.2,0c1.8-54.9,13.5-102.6,19-122.3c-6.9,7.4-10.3,12.6-15,20.3c-6.7,10.7-11.7,23.7-13.4,34.6c-1.7,10.8-0.7,22.4,0.3,33.7
				c0.2,2.3,0.4,4.7,0.6,7C1070.2,116.5,1071,125.3,1071.9,133.7z"/>
		</g>
		<g>
			<path class="st3" d="M1084.2,136.2c0,0,27.5-25.1,49.9-57.5c0,0,2.4,22.4-11,37.3c-13.4,14.9-30.7,20.1-30.7,20.1H1084.2z"/>
			<path class="st1" d="M1092.4,138.7h-8.2c-1,0-2-0.6-2.3-1.6c-0.4-1-0.1-2.1,0.6-2.8c0.3-0.2,27.6-25.3,49.5-57.1
				c0.6-0.9,1.7-1.3,2.7-1c1,0.3,1.8,1.1,1.9,2.2c0.1,1,2.3,23.7-11.7,39.3c-13.7,15.3-31.1,20.6-31.8,20.9
				C1092.9,138.7,1092.6,138.7,1092.4,138.7z M1090.5,133.7h1.6c2.4-0.8,17.5-6.2,29.2-19.3c7.9-8.8,10-20.4,10.4-27.9
				C1115.8,108.1,1098.5,125.9,1090.5,133.7z"/>
		</g>
		<g>
			<path class="st3" d="M1061,136.2c0,0-4.1-33.4-14.3-54.4s-36.5-25.6-36.5-25.6s23.3,26.4,40.2,80.1H1061z"/>
			<path class="st1" d="M1061,138.7h-10.5c-1.1,0-2.1-0.7-2.4-1.7c-16.6-52.5-39.5-78.9-39.7-79.2c-0.7-0.8-0.8-1.9-0.3-2.9
				c0.5-0.9,1.6-1.4,2.6-1.2c1.1,0.2,27.7,5.1,38.3,27c10.2,21.2,14.3,53.8,14.5,55.2c0.1,0.7-0.1,1.4-0.6,2
				S1061.7,138.7,1061,138.7z M1052.3,133.7h5.8c-1.2-8.4-5.5-33.9-13.6-50.8c-6.3-13-19.4-19.4-27.6-22.3
				C1024.5,71.1,1039.8,95.2,1052.3,133.7z"/>
		</g>
	</g>
</g>
</svg>
