<?xml version="1.0" encoding="utf-8"?>
<!-- Generator: Adobe Illustrator 19.1.0, SVG Export Plug-In . SVG Version: 6.00 Build 0)  -->
<svg version="1.1" id="Layer_1" xmlns="http://www.w3.org/2000/svg" xmlns:xlink="http://www.w3.org/1999/xlink" x="0px" y="0px"
	 viewBox="0 0 111 55" style="enable-background:new 0 0 111 55;" xml:space="preserve">
<style type="text/css">
	.st0{fill:none;}
	.st1{enable-background:new    ;}
	.st2{fill:#010101;}
</style>
<rect y="0.1" class="st0" width="111" height="54.9"/>
<g class="st1">
	<path class="st2" d="M8.6,0v35.9L24.5,18h0.7L13.5,31.2L28.9,54h-5L10.6,34.4l-1.9,2.2V54h-5V0H8.6z"/>
	<path class="st2" d="M50,54.3c-5.1,0-9.2-1.4-12.3-4.3s-4.8-7.3-4.8-13.3s1.6-10.7,4.9-14c3.3-3.3,7.5-5,12.5-5
		c5.1,0,9.2,1.4,12.3,4.3s4.8,7.3,4.8,13.3c0,6-1.6,10.7-4.9,14C59.2,52.6,55.1,54.3,50,54.3z M50.5,18.3c-3.6,0-6.7,1.6-9.1,4.9
		c-2.4,3.2-3.6,7.8-3.6,13.5c0,5.8,1.1,10.1,3.3,12.9c2.2,2.8,5.1,4.2,8.8,4.2c3.6,0,6.7-1.6,9.1-4.9c2.4-3.2,3.6-7.8,3.6-13.5
		s-1.1-10.1-3.3-12.9C57,19.7,54.1,18.3,50.5,18.3z"/>
	<path class="st2" d="M103,54c-3.3,0-5.5-0.6-6.7-1.9c-1.1-1.1-1.7-2-1.7-2.7v-1.5c-2.4,4.3-6.1,6.4-11.3,6.4c-6,0-9.5-2.7-10.3-8.2
		c-0.1-0.6-0.1-1.2-0.1-1.8c0-0.6,0.1-1.3,0.3-2c0.2-0.7,0.7-1.5,1.7-2.4c1.8-1.7,5.8-2.8,12-3.2c1.5-0.1,3-0.2,4.2-0.2
		c1.3,0,2.5,0,3.5,0.1v-12c-0.1,0-0.1-0.3,0-0.7c0.1-0.4,0-0.9-0.3-1.6c-0.3-0.6-0.6-1.3-1-1.9C92.9,20,92.1,19.4,91,19
		c-1.1-0.5-2.5-0.7-4.3-0.7c-1.8,0-3.9,0.3-6.2,1c-2.4,0.6-4.1,1.3-5.2,1.9L75,20.7c4.3-2,8.6-3,13-3c4.9,0,8.2,0.9,9.8,2.7
		c1.2,1.4,1.9,2.9,1.9,4.4v24.1c0,1.4,0.3,2.5,0.8,3.2c0.6,0.7,1.1,1.1,1.7,1.2l0.8,0.1h2.2V54H103z M84.5,53.7
		c2.5,0,4.8-0.9,6.9-2.6c2-1.8,3.1-3.4,3.3-5.1v-8.7c-1.3-0.1-2.6-0.1-3.9-0.1c-1.3,0-2.6,0.1-3.9,0.2c-3.6,0.4-6,1.2-7.1,2.4
		c-1.1,1.2-1.7,2.9-1.7,5c0,0.4,0,0.8,0.1,1.3C78.5,51.2,80.6,53.7,84.5,53.7z"/>
</g>
</svg>
